<svg id="visual" viewBox="0 0 900 600" width="900" height="600" xmlns="http://www.w3.org/2000/svg" xmlns:xlink="http://www.w3.org/1999/xlink" version="1.1"><g transform="translate(441.1475031945354 301.7991878896769)"><path d="M98.6 -164.6C140.1 -146.7 194.8 -145.4 210.9 -120.7C226.9 -96 204.5 -48 206.2 1C207.9 50 233.9 100 218.2 125.4C202.5 150.8 145.3 151.6 102 162.3C58.7 172.9 29.3 193.5 -8.4 208.1C-46.2 222.6 -92.3 231.3 -128 216.2C-163.6 201.1 -188.8 162.3 -190.7 122.3C-192.6 82.3 -171.3 41.2 -175.8 -2.6C-180.3 -46.3 -210.5 -92.7 -204.8 -126C-199 -159.4 -157.3 -179.7 -117.1 -198.4C-77 -217 -38.5 -234 -5 -225.4C28.5 -216.7 57 -182.4 98.6 -164.6" fill="#29A19C"></path></g></svg>