<svg id="visual" viewBox="0 0 900 600" width="900" height="600" xmlns="http://www.w3.org/2000/svg" xmlns:xlink="http://www.w3.org/1999/xlink" version="1.1"><g transform="translate(465.4217086342655 280.65485364697514)"><path d="M76.4 -141C102.8 -117.1 130.7 -104.3 152.3 -82.7C174 -61 189.5 -30.5 206.4 9.7C223.3 50 241.5 100 228.8 137.1C216 174.2 172.3 198.4 129 215.4C85.7 232.4 42.8 242.2 0.2 241.9C-42.5 241.6 -85 231.2 -117.8 208.1C-150.5 185.1 -173.6 149.3 -200.1 112.5C-226.7 75.7 -256.9 37.8 -262.8 -3.4C-268.7 -44.7 -250.4 -89.3 -216.8 -114C-183.2 -138.7 -134.4 -143.4 -95.7 -160.2C-57 -177.1 -28.5 -206 -1.7 -203C25 -200 50 -164.9 76.4 -141" fill="#95dae9"></path></g></svg>