<?xml version="1.0" encoding="utf-8"?>
<!-- Generator: Adobe Adobe Illustrator 24.2.0, SVG Export Plug-In . SVG Version: 6.00 Build 0)  -->
<svg version="1.1" id="Vector_layer_1_" xmlns="http://www.w3.org/2000/svg" xmlns:xlink="http://www.w3.org/1999/xlink" x="0px"
	 y="0px" width="500px" height="500px" viewBox="0 0 500 500" style="enable-background:new 0 0 500 500;" xml:space="preserve">
<style type="text/css">
	.st0{fill:#C13326;}
</style>
<path class="st0" d="M473.89,236.7c1.78,1.56,3.8,3.78,3.36,6.31c-0.88,5.96-4.41,11.01-6.23,16.67c-0.89,2.48-1.31,5.25-2.94,7.38
	c-2.54,3.08-6.71,4.2-10.25,5.73c-2.26,0.94-4.05,2.68-6.21,3.78c-4.26,1.45-8.82-0.29-12.91-1.54c-2.26-0.57-4.61-0.19-6.91-0.44
	c-2.61-0.15-5.12-0.85-7.61-1.58c-3.66-1-7.53-0.15-11.23-0.87c-3.89-0.71-8.05-3.06-11.93-1.15c-2.71,1.27-4.94,3.11-7.38,4.76
	c-3.82,1.82-7.21,4.53-11.4,5.48c-6.07,1.28-12.39,0.8-18.5,1.45c-4.58,0.72-9.2,2.41-13.09,4.89c-2.82,2.61-5.73,5.09-9.07,7.02
	c-3.42,2.08-6.66,4.59-10.48,5.89c-2.16,0.62-4.46,0.34-6.68,0.27c-3.05-0.16-6.3-0.98-8.21-3.55c-1.62-2.01-2.03-4.7-3.27-6.91
	c-2.19-3.76-7.24-3.8-10.02-6.9c-1.75-1.64-3.86-2.96-5.84-4.27c-2.66-1.03-5.53-1.57-8.02-3.05c-2.51-1.25-5.2-2.1-7.63-3.52
	c-1.65-1.11-3.59-0.82-5.45-0.64c-2.15,0.15-4.3,0.36-6.34,1.06c-2.58,0.86-4.75,2.57-7.07,3.93c-3.68,2.13-8.32,2.2-12.36,1.19
	c-1.25-0.38-2.32-1.24-3.11-2.27c-0.86-0.98-1.52-2.48-2.98-2.58c-2.55-0.02-5.07-0.09-7.43,0.86c-2.26,0.75-4.24,2.05-5.96,3.65
	c-2.41,2.33-4.85,5.41-8.55,5.01c-3.5-0.09-7.07-0.97-9.81-3.23c-1.24-0.88-2.73,0.09-3.94,0.53c-2.14,0.3-3.65,1.78-5.08,3.29
	c-1.55,1.51-3.13,2.92-4.09,4.85c-1.78,3.39-2.27,7.47-1.42,11.18c0.49,1.62,1.48,3.08,1.6,4.8c0.12,8.87,0.05,17.68-0.56,26.51
	c-0.36,9.03,1.52,13.02-8.21,17.5c-1.6,1.08-0.86,3.38-0.77,4.99c0.35,2.3,0.29,4.64,0.29,6.97c-0.14,2.08,0.35,4.36-0.6,6.28
	c-1.21,1.93-3.67,3.2-5.93,2.5c-1.86-0.69-3.32-2.13-4.77-3.46c-1.9-2.78-3.29-5.99-3.86-9.32c-1.73-8.57-2.87-17.37-2.15-26.12
	c1.36-12.12,8.51-22.75,9.78-34.91c0.15-2.79,1.24-5.54,0.85-8.33c-0.38-2.49-2.31-4.91-4.85-5.33c-5.26-0.08-12.23,0.82-15.29-4.55
	c-0.82-1.42-1.62-2.92-3.16-3.65c-1.43-0.96-2.85-2.09-4.53-2.53c-2.37-0.55-4.91-0.43-7.28-0.17c-4.07,0.57-6.27,3.55-8.14,6.88
	c-3.65,6.19-7.83,6.96-14.57,6.72c-4.88,0-14.25,1.37-17.98-1.92c-1.88-2.75-3.61-5.62-6.46-7.51c-2.28-1.66-5.04-2.39-7.59-3.5
	c-1.27-0.56-2.45-1.35-3.79-1.75c-1.27-0.27-2.52-0.1-3.79-0.04c-3.43,0.23-6.58,1.95-10.04,1.75c-2.53,0-4.8-1.21-7.09-2.12
	c-2.3-0.94-4.75-2.05-6.13-4.23c-1.91-2.91-1.63-6.59-1.84-9.92c-0.18-6.3,0-12.73-0.11-19c-0.05-2.19-0.3-5.13-2.61-6.06
	c-2.03-0.44-4.05,0.55-6.11,0.26c-3.47-0.3-7.46-0.85-9.96-3.49c-0.52-0.55-0.62-1.44-0.62-2.13c0.11-3.66,0.55-7.38,0.27-11.03
	c-0.26-3.7-2.26-7.41-5.31-9.54c-2-1.03-4.15-1.57-6.18-2.54c-1.07-0.4-2.36-1.15-2.12-2.47c0.24-1.37,0.98-2.54,1.63-3.74
	c2.43-3.91,4.68-7.95,7.27-11.75c4.01-5.78,9.84-9.89,15.02-14.55c3.74-3.29,8.62-4.79,13.08-6.81c4.26-1.94,8.17-4.92,13.03-5.15
	c3.99-0.43,7.98,0.07,11.78,1.31c3.54,0.58,7.32,0.52,10.83-0.2c4.47-1.57,7.16-5.99,11.48-7.85c4.58-1.88,9.74-1.57,14.61-1.62
	c7.57,0.08,15.05,2.05,22.61,1.61c3.78-0.06,7.55-0.64,11.23-1.45c1.72-0.43,2.98-1.64,4.35-2.68c3.43-2.55,6.65-5.5,10.43-7.54
	c1.8-0.84,3.75-1.32,5.63-1.94c1.47-0.43,3.3-0.89,4.65,0.02c0.16,0.16,0.16,0.43,0.04,0.62c1.66-0.04,3.49-0.14,5.06-0.57
	c3.02-2,5.98-4.18,8.59-6.71c2.23-2.41,4.71-4.56,7.26-6.63c1.67-1.46,2.91-3.28,4.75-4.54c7.68-4.99,17.31-4.23,25.69-1.6
	c2.22,0.32,4.6,0.39,6.75-0.27c2.75-1.61,4.94-3.98,7.69-5.62c2.47-1.66,5.06-3.21,7-5.51c1.82-2.03,3.45-4.43,6.08-5.48
	c5.14-1.86,10.63-2.59,15.99-3.58c4.9-0.54,9.86,0.26,14.64,1.34c2.94,1.09,5.64,2.82,8.59,3.94c3.16,1.7,6.12,3.78,9.07,5.81
	c6.34,5.77,16.4,3.62,21.56,11.18c1.53,1.38,3.13,2.82,5.13,3.38c4.89,1.04,9.91-0.38,14.35-2.41c2.46-1.08,5.03-1.92,7.38-3.25
	c2.12-1.25,4.12-2.68,6.4-3.64c3.86-1.64,7.98-2.73,12.13-3.38c3.48-0.14,6.97,0.18,10.43,0.5c4.43,0.3,7.96,3.03,11.47,5.45
	c2.99,1.88,6.54,3.09,8.91,5.81c1.75,1.95,1.63,4.7,2.44,7.03c0.47,1.1,1.54,1.69,2.5,2.29c1.89,1.05,3.77,2.4,5.98,2.55
	c4.73,0.54,9.54,0.04,14.25,0.64c2.96,0.26,6.04-0.05,8.88,0.99c5.41,2.25,5.89,10.79,5.55,15.84c-0.63,4.06-3.59,11.71,1.87,13.61
	c3.07,1.49,6.58,1.41,9.78,2.45c3.61,1.59,6.52,4.58,8.3,8.08c1.2,2.23,2.77,4.17,3.59,6.57c1.04,3.77,0.54,7.84,0.11,11.67
	c-0.4,3.9-0.96,7.81-2.63,11.4c-1.31,3.16-2.55,6.41-4.66,9.14c-1.49,2-3.58,3.45-5.33,5.18c-4.56,4.18-2.71,9.62,2.64,11.77
	c1.97,0.67,4.04,1.03,5.71,2.38C471.4,233.97,472.37,235.64,473.89,236.7z"/>
</svg>
