<?xml version="1.0" encoding="utf-8"?>
<!-- Generator: Adobe Adobe Illustrator 24.2.0, SVG Export Plug-In . SVG Version: 6.00 Build 0)  -->
<svg version="1.1" id="Vector_layer_1_" xmlns="http://www.w3.org/2000/svg" xmlns:xlink="http://www.w3.org/1999/xlink" x="0px"
	 y="0px" width="500px" height="500px" viewBox="0 0 500 500" style="enable-background:new 0 0 500 500;" xml:space="preserve">
<style type="text/css">
	.st0{fill:#FFC47D;}
	.st1{fill:#BD7F34;}
</style>
<path class="st0" d="M500,0v500H0V0H500z"/>
<path class="st1" d="M450.91,92.25c-21.38-0.09-42.75-0.18-64.12-0.27c-21.71-0.09-43.43-0.18-65.14-0.27
	c-21.75-0.09-43.48-0.18-65.23-0.27c-21.61-0.09-43.21-0.18-64.82-0.27c-21.58-0.09-43.15-0.18-64.73-0.27
	c-21.21-0.09-42.41-0.18-63.62-0.27c-17.29-0.07-34.59-0.15-51.89-0.22C7.57,90.39,3.79,90.38,0,90.36v-3
	c1.87,0.01,3.74,0.02,5.62,0.02c2.28,0.01,4.56,0.02,6.84,0.03c0.02,0,0.04,0,0.06,0c10.94,0.04,21.87,0.09,32.81,0.13
	c20.74,0.09,41.48,0.18,62.23,0.26c21.5,0.09,42.99,0.18,64.48,0.27c21.88,0.09,43.75,0.18,65.63,0.27c21.5,0.09,43,0.18,64.5,0.27
	c21.7,0.09,43.39,0.18,65.09,0.27c21.7,0.09,43.39,0.18,65.09,0.27c20.59,0.09,41.18,0.17,61.77,0.26c1.96,0.01,3.92,0.02,5.88,0.02
	v3C483.64,92.38,467.27,92.32,450.91,92.25z"/>
<path class="st1" d="M497.36,153.88c-1.98-0.05-3.95-0.09-5.93-0.14c-0.03,0-0.07,0-0.1-0.01c-15.53-0.37-31.07-0.74-46.6-1.11
	c-21-0.5-42.01-1-63.01-1.5c-21.2-0.5-42.39-1.01-63.59-1.52c-21.09-0.5-42.17-1-63.26-1.51c-20.93-0.5-41.86-1-62.79-1.5
	c-21.05-0.5-42.1-1-63.15-1.5c-20.16-0.48-40.33-0.96-60.49-1.44c-19.64-0.47-39.27-0.94-58.91-1.4c-3.18-0.08-6.35-0.15-9.53-0.23
	v-3c13.35,0.32,26.71,0.63,40.06,0.95c19.73,0.47,39.46,0.94,59.18,1.41c20.96,0.5,41.91,1,62.87,1.5c20.87,0.5,41.73,1,62.6,1.49
	c20.96,0.5,41.92,1,62.88,1.5c21.43,0.51,42.85,1.02,64.27,1.53c21.04,0.5,42.08,1,63.12,1.5c20.56,0.49,41.12,0.98,61.69,1.47
	c4.95,0.12,9.9,0.24,14.85,0.36c0.02,0,0.03,0,0.05,0c2.81,0.07,5.62,0.13,8.43,0.2v3C499.12,153.93,498.24,153.91,497.36,153.88z"
	/>
<path class="st1" d="M472.64,200.2c-20.75-0.05-41.5-0.09-62.25-0.13c-21.38-0.05-42.75-0.09-64.12-0.14
	c-21.18-0.04-42.35-0.09-63.52-0.14c-21.51-0.05-43.03-0.09-64.54-0.14c-21.46-0.04-42.91-0.09-64.36-0.14
	c-21.05-0.05-42.1-0.09-63.14-0.14c-20.82-0.04-41.64-0.09-62.46-0.14c-9.41-0.02-18.82-0.03-28.23-0.05v-3
	c3.69,0.01,7.39,0.01,11.08,0.02c0.05,0,0.09,0,0.14,0.01c12.81,0.03,25.61,0.05,38.42,0.07c20.86,0.04,41.72,0.09,62.58,0.14
	c21.39,0.04,42.78,0.09,64.17,0.14c21.2,0.05,42.41,0.09,63.61,0.14c21.3,0.04,42.59,0.1,63.89,0.14
	c21.48,0.04,42.96,0.09,64.45,0.14c21.23,0.05,42.47,0.09,63.7,0.14c18.53,0.04,37.06,0.08,55.59,0.12
	c3.68,0.01,7.36,0.02,11.04,0.02c0.61,0,1.13,0.44,1.34,0.99v1.04c-0.22,0.59-0.82,0.97-1.48,0.97
	C489.9,200.26,481.27,200.22,472.64,200.2z"/>
<path class="st1" d="M464.26,255.56c-21.43-0.5-42.86-1.01-64.28-1.52c-21.83-0.52-43.66-1.03-65.49-1.54
	c-21.63-0.51-43.26-1.02-64.89-1.53c-22.34-0.53-44.67-1.05-67-1.58c-21.71-0.51-43.43-1.02-65.15-1.54
	c-21.71-0.51-43.41-1.02-65.12-1.54c-19.65-0.46-39.3-0.93-58.95-1.39c-4.46-0.1-8.92-0.21-13.38-0.31v-3
	c2.55,0.06,5.1,0.12,7.65,0.18c12.53,0.29,25.06,0.59,37.58,0.89c21.54,0.51,43.08,1.02,64.62,1.52
	c21.64,0.51,43.29,1.02,64.93,1.53c22.32,0.53,44.65,1.05,66.98,1.58c21.64,0.51,43.29,1.02,64.93,1.53
	c21.9,0.52,43.8,1.03,65.7,1.55c21.65,0.51,43.3,1.02,64.96,1.54c18.79,0.44,37.58,0.88,56.37,1.33c2.09,0.05,4.19,0.1,6.28,0.15v3
	C488.09,256.12,476.17,255.84,464.26,255.56z"/>
<path class="st1" d="M0,297.15c15.09-0.25,30.19-0.51,45.28-0.76c21.69-0.37,43.38-0.73,65.07-1.09
	c21.96-0.37,43.92-0.74,65.89-1.11c21.95-0.37,43.9-0.74,65.85-1.11c22.07-0.37,44.14-0.74,66.2-1.11
	c21.66-0.36,43.31-0.73,64.96-1.09c21.9-0.37,43.81-0.73,65.71-1.11c20.34-0.34,40.69-0.68,61.03-1.02v2.99
	c-18.86,0.31-37.72,0.64-56.59,0.95c-22.02,0.37-44.04,0.74-66.06,1.11c-21.64,0.36-43.29,0.73-64.93,1.09
	c-21.92,0.37-43.84,0.74-65.77,1.11c-21.98,0.37-43.96,0.74-65.94,1.11c-21.89,0.37-43.79,0.73-65.68,1.11
	c-21.69,0.37-43.38,0.73-65.07,1.1c-13.1,0.22-26.2,0.44-39.3,0.66c0,0-0.01,0-0.01,0c-3.55,0.06-7.1,0.13-10.65,0.18V297.15z"/>
<path class="st1" d="M0,348.2c9.81-0.54,19.63-1.08,29.44-1.63c22.74-1.25,45.49-2.51,68.23-3.77c22.62-1.25,45.25-2.5,67.88-3.75
	c23.05-1.27,46.09-2.55,69.14-3.82c22.54-1.25,45.09-2.49,67.63-3.73c22.96-1.27,45.92-2.54,68.88-3.8
	c22.66-1.25,45.33-2.51,67.99-3.76c17.39-0.96,34.79-1.92,52.18-2.88c0.39-0.02,0.79-0.04,1.18-0.07c0.01,0,0.01,0,0.02,0
	c0,0,0,0,0.01,0c2.48-0.14,4.95-0.27,7.43-0.41v3c-3.02,0.17-6.05,0.33-9.07,0.5c-0.02,0-0.04,0-0.07,0
	c-17,0.94-34.01,1.88-51.01,2.82c-22.45,1.24-44.9,2.48-67.35,3.72c-23.04,1.27-46.07,2.55-69.1,3.82
	c-22.54,1.25-45.09,2.49-67.63,3.74c-22.98,1.27-45.96,2.54-68.93,3.81c-22.73,1.25-45.46,2.51-68.19,3.77
	c-22.91,1.27-45.81,2.53-68.71,3.8c-9.98,0.55-19.96,1.1-29.94,1.65V348.2z"/>
<path class="st1" d="M0,386.19c5.58-0.18,11.17-0.4,16.75-0.56c0.06,0,0.13,0,0.19,0.01c14.34-0.48,28.69-0.97,43.03-1.45
	c22.14-0.74,44.29-1.48,66.44-2.23c22.11-0.74,44.22-1.48,66.33-2.22c22.51-0.75,45.03-1.5,67.54-2.26
	c22.2-0.75,44.39-1.48,66.59-2.23c21.86-0.73,43.73-1.46,65.59-2.2c22.27-0.75,44.53-1.49,66.8-2.23
	c13.58-0.45,27.16-0.91,40.75-1.36v3c-0.01,0-0.02,0-0.02,0c-10.69,0.36-21.38,0.71-32.07,1.07c-22.34,0.75-44.69,1.5-67.04,2.24
	c-21.91,0.73-43.82,1.46-65.73,2.2c-22.14,0.74-44.28,1.48-66.42,2.22c-22.47,0.75-44.94,1.5-67.41,2.25
	c-22.48,0.75-44.97,1.51-67.46,2.26c-21.97,0.73-43.94,1.47-65.92,2.21c-21.28,0.71-42.56,1.43-63.84,2.14
	c-0.24,0.01-0.48,0.02-0.72,0.02c-1.12,0.04-2.24,0.08-3.36,0.11V386.19z"/>
<path class="st1" d="M0,431.91c14.51-0.99,29.02-1.97,43.53-2.95c20.57-1.4,41.14-2.79,61.71-4.19c21.38-1.45,42.75-2.9,64.13-4.35
	c21.61-1.46,43.21-2.93,64.82-4.4c21.68-1.47,43.35-2.94,65.02-4.41c21.67-1.47,43.34-2.94,65.01-4.41
	c21.37-1.45,42.73-2.9,64.1-4.35c19.71-1.34,39.42-2.67,59.13-4.01c0.02,0,0.03,0,0.05,0c2.04-0.14,4.08-0.28,6.12-0.42
	c0.02,0,0.05,0,0.07,0c2.1-0.14,4.21-0.28,6.31-0.43v3.01c-0.9,0.06-1.79,0.12-2.69,0.18c-15.73,1.08-31.47,2.14-47.21,3.2
	c-21.18,1.44-42.36,2.88-63.54,4.31c-21.59,1.46-43.18,2.93-64.77,4.39c-21.43,1.46-42.85,2.91-64.28,4.36
	c-21.5,1.46-43,2.91-64.5,4.38c-21.61,1.47-43.23,2.93-64.84,4.4c-20.94,1.42-41.88,2.84-62.82,4.26
	c-20.21,1.37-40.43,2.75-60.64,4.12c-1.57,0.11-3.13,0.21-4.7,0.32V431.91z"/>
<path class="st1" d="M0,458.39c0.02,0,0.04,0,0.06,0c0.11-0.01,0.22,0,0.33-0.01c0.08,0,0.16,0,0.24,0c0.12,0,0.24,0,0.37-0.01
	c0.05,0,0.11,0,0.16,0c0.82-0.02,1.64-0.03,2.46-0.05c0.05,0,0.09,0,0.14,0c0.01,0,0.01,0,0.02,0c0.26-0.01,0.54-0.03,0.8-0.02
	c0.12-0.02,0.24-0.02,0.37-0.02c0.12-0.01,0.25-0.01,0.38,0.01c0.01,0,0.02,0,0.02,0c-0.01,0-0.02,0-0.02,0c0,0,0,0,0.01,0
	c0.02,0,0.04,0,0.06,0c0.3,0,0.59-0.01,0.89-0.02c0.02,0,0.03,0,0.05,0c0.03,0,0.05,0,0.08,0c-0.01,0-0.02,0-0.02,0
	c0.02,0,0.04,0,0.06,0c0.05,0,0.09,0,0.14,0c-0.01,0-0.02,0-0.03,0c0.01,0,0.02,0,0.03,0c0.01,0,0.01,0,0.02,0
	c-0.01,0-0.01,0-0.02,0c0.01,0,0.02,0,0.02,0c0,0,0.01,0,0.01,0c0.01,0,0.02,0,0.03,0c0.05,0,0.09,0,0.14,0c0,0,0.01,0,0.01,0
	c0.55-0.01,1.1-0.02,1.65-0.03c0.43-0.01,0.86-0.02,1.29-0.03c0.06,0,0.11,0,0.17,0c0.02,0,0.05,0,0.07,0
	c0.06-0.01,0.13-0.01,0.19-0.01c0.01,0,0.02,0,0.03,0c0.55-0.01,1.11-0.02,1.66-0.03c1.21-0.02,2.43-0.05,3.65-0.07
	c1.13-0.02,2.26-0.04,3.39-0.07c0.61-0.01,1.23-0.02,1.85-0.04c0.18,0,0.36-0.01,0.53-0.01c0.59-0.01,1.18-0.02,1.77-0.03
	c0.55-0.01,1.11-0.02,1.66-0.03c0.28-0.01,0.58-0.04,0.86-0.02c0.07-0.01,0.14-0.01,0.21,0c0.4-0.01,0.81-0.02,1.21-0.03
	c0.01,0,0.01,0,0.02,0c0.05,0,0.09,0,0.14,0c9.11-0.18,18.23-0.35,27.34-0.53c-0.01,0-0.01,0-0.02,0c0.68-0.01,1.36-0.02,2.04-0.04
	c0.15-0.01,0.3-0.01,0.46-0.01c0.74-0.01,1.49-0.03,2.23-0.04c0.06,0,0.11,0,0.16,0c0.08-0.01,0.16-0.01,0.24-0.01
	c0,0,0.01,0,0.01,0c0.69-0.01,1.38-0.03,2.07-0.04c0.07,0,0.13,0,0.2,0c0.03,0,0.06,0,0.09,0c0.01,0,0.01,0,0.02,0
	c0.04,0,0.09,0,0.13,0c0.81-0.02,1.62-0.03,2.43-0.05c0.01,0,0.02,0,0.04,0c0.06-0.01,0.13-0.01,0.19,0
	c0.79-0.02,1.58-0.03,2.38-0.05c0.01,0,0.03,0,0.04,0c0.06,0,0.11,0,0.17,0c0.78-0.02,1.55-0.03,2.34-0.04
	c1.23-0.02,2.45-0.05,3.68-0.07c2.8-0.05,5.6-0.11,8.41-0.16c1.31-0.02,2.62-0.05,3.93-0.07c0.73-0.02,1.46-0.03,2.19-0.04
	c0.14-0.01,0.28-0.01,0.42-0.01c0.45-0.01,0.89-0.02,1.34-0.03c0.35-0.01,0.74-0.05,1.11-0.02c0.04,0,0.08,0,0.12,0
	c0,0,0.01,0,0.01,0c0.02,0,0.05,0,0.07,0c0.82-0.02,1.64-0.03,2.46-0.05c1.21-0.02,2.43-0.05,3.64-0.07
	c2.49-0.05,4.98-0.1,7.47-0.14c2.38-0.04,4.76-0.09,7.14-0.14c1.09-0.02,2.18-0.04,3.28-0.06c0.22-0.03,0.45-0.03,0.67-0.02
	c0.11,0,0.21,0,0.31,0c0.79-0.01,1.59-0.03,2.38-0.04c0,0-0.01,0-0.01,0c0.04,0,0.08,0,0.12,0c0.03,0,0.06,0,0.09,0
	c0,0-0.01,0-0.01,0c2.58-0.05,5.15-0.1,7.73-0.15c0.02,0,0.03,0,0.05,0c0,0,0,0-0.01,0c0.03,0,0.06,0,0.1,0c-0.01,0-0.01,0-0.02,0
	c1.04-0.02,2.07-0.04,3.11-0.06c0.15-0.02,0.3-0.01,0.45-0.01c0.06,0,0.13,0,0.2,0c2.43-0.05,4.86-0.09,7.3-0.14
	c2.26-0.04,4.52-0.09,6.78-0.13c0.28,0,0.56-0.02,0.84-0.01c0.01,0,0.03,0,0.04,0c1.25-0.02,2.51-0.05,3.76-0.07
	c0.05,0,0.1,0,0.16,0c2.48-0.05,4.96-0.1,7.45-0.14c0,0,0,0,0,0c0.09,0,0.18,0,0.26-0.01c0.05,0,0.11-0.01,0.16,0
	c0.61-0.01,1.21-0.02,1.82-0.03c0.38-0.01,0.76-0.01,1.14-0.02c0.35-0.01,0.7-0.01,1.04-0.02c0.89-0.02,1.77-0.03,2.66-0.05
	c0.29,0,0.6-0.04,0.9-0.02c0.04,0,0.08,0,0.12,0c0.44-0.01,0.88-0.02,1.32-0.02c0.85-0.02,1.7-0.03,2.55-0.05c0.04,0,0.08,0,0.12,0
	c0.01,0,0.02,0,0.02,0c0.01,0,0.02,0,0.03,0c0.06,0,0.12-0.01,0.18,0c0.65-0.01,1.3-0.02,1.95-0.04c0.41-0.01,0.82-0.02,1.23-0.02
	c0,0,0,0,0,0c0.21-0.03,0.42-0.02,0.63-0.02c0.1,0,0.19,0,0.28,0c0.76-0.02,1.51-0.03,2.27-0.05c0.33-0.01,0.7-0.05,1.04-0.02
	c0.01,0,0.03,0,0.04,0c0.82-0.02,1.64-0.03,2.47-0.05c0.3-0.01,0.6-0.01,0.9-0.02c0.16,0,0.32-0.02,0.48-0.01c0.06,0,0.11,0,0.17,0
	c0.02,0,0.04,0,0.06,0c1.17-0.02,2.34-0.04,3.51-0.07c0,0,0,0,0,0c0.03,0,0.06,0,0.1,0c0,0,0,0,0,0c0.03,0,0.07,0,0.1,0c0,0,0,0,0,0
	c-0.02,0-0.04,0-0.07,0c0.03,0,0.06,0,0.09,0c0.98-0.02,1.97-0.04,2.95-0.06c0.31-0.01,0.64-0.04,0.95-0.02
	c0.13-0.01,0.26-0.01,0.39-0.01c0.07,0,0.15,0,0.23,0c1.24-0.03,2.48-0.05,3.72-0.07c-0.01,0-0.01,0-0.02,0
	c5.3-0.1,10.61-0.2,15.91-0.3c1.27-0.02,2.53-0.05,3.79-0.07c0.78-0.01,1.57-0.03,2.35-0.04c0.45-0.01,0.89-0.02,1.34-0.03
	c0.16,0,0.34-0.02,0.5-0.01c0.15-0.01,0.29-0.01,0.44-0.01c0.09,0,0.19,0,0.28,0c0.93-0.02,1.87-0.04,2.8-0.05
	c0.11,0,0.23-0.01,0.34-0.01c0.03,0,0.06,0,0.09-0.01c0,0,0.01,0,0.01,0c0.06,0,0.11-0.01,0.17,0c0.54-0.01,1.08-0.02,1.61-0.03
	c1.51-0.03,3.02-0.06,4.54-0.09c0.39-0.01,0.79-0.02,1.18-0.02c0.02,0,0.04,0,0.06,0c0.18-0.02,0.37-0.02,0.56-0.02
	c0.09,0,0.17,0,0.26,0c0.92-0.02,1.84-0.04,2.76-0.05c0.28-0.01,0.58-0.04,0.86-0.02c1.33-0.03,2.66-0.05,3.99-0.07
	c1.34-0.03,2.69-0.05,4.03-0.08c0.01,0,0.03,0,0.04,0c0.04,0,0.08,0,0.12,0c0.82-0.02,1.64-0.03,2.47-0.05
	c0.41-0.01,0.82-0.02,1.23-0.02c0.02,0,0.03,0,0.05,0c0.04,0,0.07,0,0.11,0c0.05,0,0.09,0,0.14,0c0,0,0,0,0.01,0
	c0.34-0.01,0.68-0.02,1.01-0.02c0.9-0.02,1.81-0.04,2.71-0.05c0,0-0.01,0-0.01,0c0.04,0,0.09,0,0.13,0c0.03,0,0.05,0,0.08,0
	c0,0,0,0,0,0c1.12-0.02,2.25-0.04,3.37-0.06c0,0,0,0,0,0c0.03,0,0.05,0,0.08,0c0,0,0,0,0,0c0.01,0,0.01,0,0.02,0
	c0.04,0,0.07,0,0.11,0c-0.04,0-0.07,0-0.1,0c0.06,0,0.12,0,0.18,0c1.27-0.02,2.53-0.05,3.79-0.07c0,0,0,0,0,0c0,0,0,0,0,0
	c0.07,0,0.13,0,0.2,0c0,0,0,0-0.01,0c1.08-0.02,2.15-0.04,3.23-0.06c0.26-0.01,0.54-0.03,0.82-0.02c0.04,0,0.08,0,0.12,0
	c0,0,0.01,0,0.01,0c0.02,0,0.04,0,0.06,0c2.36-0.05,4.73-0.09,7.09-0.14c0,0,0,0,0,0c0.04,0,0.07,0,0.11,0c0,0-0.01,0-0.01,0
	c0,0,0.01,0,0.01,0c0,0,0,0,0,0c0.02,0,0.05,0,0.07,0c-0.02,0-0.04,0-0.07,0c0.05,0,0.09,0,0.14,0c0.69-0.01,1.39-0.03,2.08-0.04
	c0.43-0.01,0.87-0.02,1.3-0.03c0.02,0,0.04,0,0.06,0c6.18-0.12,12.37-0.24,18.55-0.36c0,0,0,0,0,0c0.04,0,0.08,0,0.12,0
	c0.03,0,0.06,0,0.09,0c0,0,0,0,0,0c0.98-0.02,1.95-0.04,2.93-0.06c0.03,0,0.05,0,0.08,0c0.04,0,0.07,0,0.11,0c0.04,0,0.09,0,0.13,0
	c0.04,0,0.07,0,0.11,0c0.67-0.01,1.34-0.02,2.01-0.04c1.02-0.02,2.03-0.04,3.05-0.06c0.9-0.02,1.8-0.04,2.71-0.05
	c0.71-0.02,1.43-0.03,2.14-0.04c0.35,0,0.73-0.05,1.09-0.02c1.18-0.02,2.35-0.04,3.53-0.07c0,0-0.01,0-0.01,0
	c5.04-0.1,10.09-0.19,15.13-0.29c2.8-0.05,5.6-0.11,8.4-0.16c0.85-0.02,1.7-0.03,2.55-0.05c0.04,0,0.07,0,0.11,0
	c0.02,0,0.05,0,0.07,0c0.01,0,0.02,0,0.04,0c0.05,0,0.1,0,0.15,0c0.62-0.01,1.24-0.02,1.86-0.04c0.44-0.01,0.88-0.02,1.32-0.03
	c0.16,0,0.32-0.02,0.48-0.01c0.14-0.01,0.28,0,0.41,0c1-0.02,2-0.04,3-0.06c0.19-0.01,0.39-0.01,0.59-0.01
	c1.23-0.02,2.45-0.05,3.68-0.07c0.02,0,0.04,0,0.06,0c0.08,0,0.15,0,0.23,0c0.85-0.02,1.7-0.04,2.56-0.05
	c0.27-0.01,0.55-0.03,0.81-0.02c0.06,0,0.12-0.01,0.18,0c0.01,0,0.02,0,0.03,0c0.47-0.01,0.94-0.02,1.4-0.03
	c1.33-0.02,2.66-0.05,3.99-0.07c0.79-0.02,1.58-0.03,2.37-0.05c0.01,0,0.03,0,0.04,0c0,0,0,0,0,0c0.06-0.01,0.13-0.01,0.19,0
	c0.38-0.01,0.75-0.02,1.12-0.02c0.62-0.01,1.25-0.02,1.87-0.04c0.06,0,0.13,0,0.19,0c0.02,0,0.04,0,0.07,0c0.06,0,0.12,0,0.18-0.01
	c1.07-0.02,2.14-0.04,3.21-0.06c1.48-0.03,2.96-0.06,4.44-0.09c0,0-0.01,0-0.01,0c0.04,0,0.07,0,0.11,0c0.03,0,0.07,0,0.1,0
	c0,0-0.01,0-0.01,0c0.65-0.01,1.29-0.02,1.94-0.04c0.34-0.01,0.68-0.01,1.02-0.02c0.09,0,0.18,0,0.27-0.01c0.01,0,0.03,0,0.04,0
	c0.04,0,0.08,0,0.13,0c0.04,0,0.08,0,0.12,0c0.47-0.01,0.93-0.02,1.4-0.03c0.76-0.02,1.51-0.03,2.27-0.04
	c0.07-0.01,0.14-0.01,0.21,0c0.92-0.02,1.85-0.04,2.77-0.05c0.28-0.01,0.57-0.04,0.85-0.02c0.04,0,0.08,0,0.11,0
	c2.43-0.05,4.86-0.09,7.28-0.14c0.91-0.02,1.82-0.04,2.73-0.05c0.19-0.01,0.39-0.02,0.58-0.01c0.53-0.01,1.05-0.02,1.58-0.03
	c0.76-0.02,1.52-0.03,2.28-0.05c0.06,0,0.12,0,0.18,0c0.02,0,0.05,0,0.07,0c0.97-0.02,1.95-0.04,2.92-0.06
	c2.48-0.05,4.96-0.09,7.44-0.14c0.05,0,0.11,0,0.16,0c0.13-0.01,0.27-0.01,0.42-0.01c0.62-0.01,1.25-0.02,1.87-0.04
	c0.06,0,0.12,0,0.18,0c0.13-0.02,0.27-0.01,0.41-0.01c0.01,0,0.02,0,0.04,0c0.04,0,0.09,0,0.13,0c0.01,0,0.01,0,0.02,0
	c0.21,0,0.43-0.01,0.65-0.01c0.9-0.02,1.8-0.04,2.7-0.05c-0.01,0-0.01,0-0.01,0c0.04,0,0.09,0,0.13,0c0.03,0,0.06,0,0.09,0
	c0.52-0.01,1.04-0.02,1.55-0.03c0.41-0.01,0.82-0.02,1.22-0.02c0.23-0.03,0.48-0.03,0.71-0.02c0.1,0,0.2,0,0.3,0
	c0.89-0.02,1.79-0.04,2.68-0.05c0.04,0,0.08,0,0.12,0c0.02,0,0.05,0,0.07,0c0.84-0.02,1.69-0.03,2.53-0.05c0.29,0,0.6-0.04,0.9-0.02
	c0.02,0,0.04,0,0.06,0c2.5-0.05,5-0.1,7.51-0.14c1.26-0.02,2.51-0.05,3.77-0.07c0.35-0.01,0.7-0.01,1.05-0.02
	c0.05,0,0.1-0.01,0.14-0.01c0.1,0,0.21,0,0.32-0.01c0.83-0.02,1.66-0.03,2.49-0.05c0.02,0,0.04,0,0.06,0
	c1.06-0.02,2.12-0.04,3.17-0.06c0.47-0.01,0.95-0.02,1.43-0.03c0.14,0,0.29-0.01,0.44-0.01c0.05,0,0.1,0,0.14,0
	c0.83-0.02,1.65-0.03,2.48-0.05h0c10.29-0.2,20.59-0.4,30.88-0.59c0.04,0,0.08,0,0.13,0c0.07-0.01,0.15-0.01,0.22-0.01c0,0,0,0,0,0
	c2.24-0.04,4.47-0.09,6.71-0.13c0.08,0,0.16,0,0.24,0c0.04,0,0.08-0.01,0.12-0.01c0.01,0,0.01,0,0.02,0c0.06,0,0.12-0.01,0.18,0
	c0.55-0.01,1.09-0.02,1.64-0.03c0.06-0.01,0.12-0.01,0.18-0.01c0.06,0,0.12,0,0.18,0c0.1,0,0.21-0.01,0.31-0.01
	c0.14-0.01,0.29-0.01,0.44-0.01c0.08,0,0.16,0,0.25,0c0.22,0,0.45-0.03,0.67-0.01c0.05,0,0.1,0,0.15,0
	c0.14-0.02,0.28-0.02,0.42-0.01c0.17,0,0.35-0.01,0.52-0.01c0.12,0,0.24-0.01,0.36-0.01c0.22-0.01,0.45-0.02,0.67-0.01
	c0.14-0.01,0.29-0.01,0.44-0.01c0.09,0,0.18,0,0.27,0c0.18-0.02,0.37-0.02,0.55-0.02c0.08,0,0.16,0,0.24,0
	c0.11,0,0.23-0.01,0.35-0.01c0.14-0.02,0.28-0.02,0.41,0c0.03,0,0.07,0,0.1,0c0.02,0,0.04,0,0.06,0c0.04,0,0.09,0,0.13,0
	c0.04,0,0.08,0,0.12,0c0.3,0,0.6-0.01,0.9-0.02c0.13,0,0.26-0.01,0.39-0.01c0.1-0.01,0.2-0.01,0.3-0.01c0.09,0,0.18,0,0.27,0
	c0.08,0,0.15,0,0.23,0c0.31,0,0.63-0.01,0.95-0.02c1.83-0.04,3.66-0.07,5.49-0.11v2.99c-0.56,0.01-1.12,0.02-1.68,0.03
	c-1.64,0.03-3.28,0.06-4.91,0.09c-0.02,0-0.04,0-0.06,0c-0.02,0-0.04,0-0.06,0c-0.05,0-0.09,0-0.14,0c-0.03,0-0.05,0-0.08,0
	c-0.04,0-0.07,0-0.11,0c-0.03,0-0.05,0-0.08,0c-0.52,0.01-1.04,0.02-1.56,0.03c-0.03,0-0.06,0-0.1,0c-0.02,0-0.03,0-0.05,0
	c-0.03,0-0.06,0-0.09,0c-0.02,0-0.04,0-0.06,0c-0.04,0-0.08,0-0.12,0c-0.04,0-0.08,0-0.12,0c-0.05,0-0.11,0-0.16,0
	c-0.03,0-0.06,0-0.08,0c-0.04,0-0.08,0-0.12,0c-0.2,0-0.4,0.02-0.6,0.01c-0.2,0.02-0.4,0.01-0.6,0.01c-0.05,0-0.09,0-0.14,0
	c-0.13,0.01-0.27,0.01-0.41,0.01c-0.08,0-0.16,0-0.24,0c-0.07,0-0.13,0-0.2,0c0,0,0,0-0.01,0c-0.06,0.01-0.12,0.01-0.18,0.01
	c-0.01,0-0.02,0-0.02,0c-0.06,0-0.12,0-0.18,0c0.01,0,0.02,0,0.03,0c-0.21,0-0.42,0.01-0.63,0.01c-0.02,0-0.05,0-0.07,0
	c-0.02,0-0.04,0-0.05,0c-0.02,0-0.05,0-0.07,0c-0.04,0-0.08,0-0.12,0c-0.09,0-0.19,0-0.28,0c-0.04,0-0.08,0-0.13,0
	c-0.15,0-0.29,0-0.44,0.01c-0.18,0.01-0.36,0.02-0.54,0.01c-0.14,0.01-0.28,0-0.42,0.01c-0.05,0-0.11,0-0.16,0
	c-0.01,0-0.02,0-0.03,0c-0.05,0-0.09,0-0.14,0c-0.07,0.01-0.14,0.01-0.21,0c-0.56,0.01-1.11,0.02-1.67,0.03c0,0,0,0-0.01,0
	c-0.06,0.01-0.12,0.01-0.17,0c-0.07,0-0.15,0-0.22,0c-2.18,0.04-4.37,0.08-6.55,0.12c-0.08,0-0.16,0-0.23,0c-0.02,0-0.04,0-0.06,0
	c-0.07,0.01-0.15,0.01-0.23,0.01c-0.45,0.01-0.9,0.02-1.35,0.02c-1.99,0.04-3.98,0.08-5.96,0.12c-7.81,0.15-15.62,0.3-23.43,0.45
	c0,0,0,0,0,0c-0.01,0-0.01,0-0.02,0c-0.06,0-0.12,0-0.18,0c0,0,0,0,0.01,0c-0.62,0.01-1.24,0.02-1.86,0.04c-0.2,0-0.4,0.01-0.6,0.01
	c-0.02,0-0.03,0-0.05,0c-0.7,0.02-1.4,0.03-2.1,0.04c-0.56,0.01-1.12,0.02-1.69,0.04c-0.37,0.01-0.74,0.01-1.1,0.02c0,0,0,0,0,0
	c-0.07,0.01-0.13,0.01-0.19,0c0,0-0.01,0-0.01,0c-0.5,0.01-0.99,0.02-1.48,0.03c-0.41,0.01-0.83,0.02-1.25,0.03
	c-0.01,0-0.02,0-0.03,0c-0.22,0.02-0.45,0.02-0.68,0.02c-0.11,0-0.23,0-0.34,0c-0.84,0.02-1.69,0.03-2.54,0.05
	c-1.22,0.02-2.44,0.05-3.66,0.07c-1.41,0.03-2.83,0.05-4.25,0.08c-0.38,0.01-0.75,0.02-1.12,0.02c0,0,0,0-0.01,0
	c-0.04,0-0.08,0-0.12,0c-0.02,0-0.04,0-0.06,0c-0.32,0-0.63,0.01-0.95,0.02c-0.46,0.01-0.91,0.02-1.37,0.03
	c-0.31,0.01-0.64,0.04-0.95,0.02c-0.13,0-0.27,0-0.4,0.01c-0.89,0.02-1.79,0.03-2.68,0.05c-0.2,0-0.4,0.02-0.59,0.01
	c-0.02,0-0.03,0-0.05,0c-0.02,0-0.04,0-0.06,0c-0.51,0.01-1.02,0.02-1.54,0.03c-0.41,0.01-0.83,0.02-1.24,0.02
	c-0.01,0-0.02,0-0.03,0c-0.22,0.02-0.44,0.02-0.66,0.02c-0.11,0-0.23,0-0.33,0c-0.84,0.02-1.69,0.03-2.53,0.05
	c-0.07,0-0.15,0-0.22,0c-0.08,0.01-0.16,0.01-0.24,0.01c-0.79,0.01-1.58,0.03-2.37,0.04c-0.23,0.02-0.47,0.01-0.71,0.01
	c-0.54,0.01-1.07,0.02-1.6,0.03c-1.49,0.03-2.99,0.05-4.48,0.09c-1.35,0.02-2.7,0.05-4.05,0.08c-0.06,0-0.12,0-0.17,0
	c-0.01,0-0.01,0-0.02,0c-0.01,0-0.02,0-0.04,0c-0.03,0-0.06,0-0.09,0c-0.65,0.01-1.3,0.03-1.96,0.04c-0.45,0.01-0.9,0.02-1.35,0.02
	c-0.12,0-0.24,0.01-0.36,0.01c-0.21,0.02-0.42,0.02-0.63,0.02c-0.11,0-0.21,0-0.31,0c-2.97,0.05-5.94,0.11-8.91,0.17
	c-0.31,0-0.62,0.01-0.93,0.01c0,0,0,0,0,0c-0.06,0.01-0.12,0.01-0.18,0c-0.01,0-0.02,0-0.03,0c-0.3,0.01-0.61,0.01-0.92,0.02
	c-0.86,0.02-1.71,0.03-2.56,0.05c0,0,0,0,0,0c-0.03,0-0.05,0-0.08,0c-0.55,0.01-1.1,0.02-1.65,0.03c-0.46,0.01-0.93,0.02-1.4,0.03
	c-0.3,0-0.62,0.04-0.93,0.02c-0.01,0-0.02,0-0.03,0c0.01,0,0.02,0,0.03,0c0,0-0.01,0-0.01,0c-0.03,0-0.05,0-0.08,0
	c-0.66,0.01-1.33,0.03-1.99,0.04c-0.33,0.01-0.67,0.01-1,0.02c0,0,0,0-0.01,0c-0.38,0.01-0.75,0.02-1.13,0.02
	c-1.45,0.03-2.89,0.05-4.34,0.08c-0.87,0.02-1.73,0.04-2.6,0.05c-0.04,0-0.07,0-0.11,0c-0.02,0-0.05,0-0.07,0c-0.01,0-0.03,0-0.04,0
	c-0.05,0-0.1,0-0.14,0c-0.71,0.01-1.43,0.03-2.14,0.04c-0.35,0.01-0.73,0.05-1.09,0.03c-0.03,0-0.06,0-0.09,0
	c-1.21,0.02-2.43,0.05-3.64,0.07c-1.42,0.03-2.84,0.05-4.26,0.08c-0.01,0-0.02,0-0.04,0c-0.04,0-0.07,0-0.11,0
	c-0.77,0.02-1.55,0.03-2.32,0.04c-0.38,0.01-0.77,0.02-1.16,0.02c-0.03,0-0.06,0-0.1,0c-0.01,0-0.01,0-0.02,0c-0.05,0-0.1,0-0.16,0
	c-0.01,0-0.01,0-0.02,0c-0.36,0.01-0.72,0.02-1.08,0.02c-0.81,0.02-1.62,0.03-2.44,0.05c-0.07,0-0.15,0-0.22,0
	c-0.09,0-0.19,0-0.28,0.01c-0.07,0.01-0.14,0.01-0.22,0c-0.61,0.01-1.23,0.02-1.84,0.04c-0.4,0.01-0.8,0.02-1.2,0.02
	c-0.09,0-0.17,0.01-0.26,0.01c-0.02,0-0.04,0-0.06,0c-0.47,0.01-0.95,0.02-1.42,0.03c-0.7,0.02-1.4,0.03-2.11,0.04
	c-0.04,0-0.08,0-0.12,0c-0.08,0-0.16,0.01-0.24,0.01c-1.17,0.02-2.33,0.04-3.5,0.07c-2.67,0.05-5.33,0.1-7.99,0.15
	c-4.85,0.09-9.69,0.19-14.53,0.28c0,0,0,0,0,0c-0.04,0-0.09,0-0.13,0c-0.03,0-0.05,0-0.08,0c0,0,0,0,0,0
	c-1.16,0.02-2.31,0.04-3.47,0.06c0,0,0,0,0,0c0,0,0,0,0,0c-0.01,0-0.01,0-0.02,0c0,0,0,0,0,0c-0.02,0-0.04,0-0.06,0
	c0.02,0,0.03,0,0.05,0c-0.03,0-0.06,0-0.09,0c-2.45,0.05-4.9,0.09-7.34,0.14c-1.24,0.02-2.47,0.05-3.71,0.07c-0.03,0-0.07,0-0.1,0
	c-0.1,0-0.2,0-0.3,0c-0.86,0.02-1.72,0.04-2.59,0.05c-0.02,0-0.05,0-0.07,0c-0.02,0-0.05,0-0.07,0c-0.73,0.01-1.46,0.03-2.2,0.04
	c-5.5,0.11-10.99,0.21-16.48,0.32c0,0,0.01,0,0.01,0c-0.88,0.02-1.76,0.03-2.65,0.05c-0.32,0.01-0.65,0.03-0.97,0.01
	c-0.15,0.01-0.31,0.01-0.47,0.02c-1.06,0.02-2.11,0.04-3.17,0.06c-1.1,0.02-2.19,0.04-3.29,0.06c-0.2,0.01-0.42,0.03-0.63,0.01
	c-0.18,0.01-0.36,0.01-0.54,0.01c-1.11,0.02-2.22,0.04-3.34,0.07c0,0,0.01,0,0.01,0c-0.02,0-0.05,0-0.07,0c-0.04,0-0.09,0-0.13,0
	c0,0,0.01,0,0.01,0c-0.85,0.02-1.71,0.03-2.56,0.05c-0.47,0.01-0.95,0.02-1.42,0.03c-0.01,0-0.03,0-0.04,0c-0.04,0-0.08,0-0.12,0
	c-1.1,0.02-2.19,0.04-3.29,0.06c0,0,0,0,0.01,0c-0.02,0-0.03,0-0.05,0c-0.02,0-0.03,0-0.05,0c0,0,0,0,0.01,0
	c-1.27,0.02-2.54,0.05-3.82,0.07c-0.03,0-0.07,0-0.1,0c-0.02,0-0.04,0-0.06,0c-0.72,0.02-1.44,0.03-2.16,0.04
	c-0.47,0.01-0.93,0.02-1.4,0.03c-0.13,0-0.26,0.01-0.39,0.01c-0.19,0.02-0.39,0.02-0.59,0.01c-0.1,0-0.2,0-0.29,0
	c-1.34,0.02-2.68,0.05-4.02,0.08c-0.91,0.02-1.81,0.04-2.72,0.05c-0.13,0-0.25,0.01-0.38,0.01c-0.01,0-0.02,0-0.04,0
	c-0.03,0-0.06,0-0.09,0c-0.05,0-0.1,0-0.15,0c-0.62,0.01-1.25,0.02-1.87,0.03c-0.78,0.02-1.55,0.03-2.33,0.05c-0.01,0-0.01,0-0.02,0
	c-0.04,0-0.09,0-0.13,0c-0.79,0.01-1.58,0.03-2.37,0.04c-1.49,0.03-2.98,0.06-4.48,0.09c-0.16,0-0.32,0.01-0.48,0.01
	c-1.37,0.02-2.74,0.05-4.11,0.08c-0.04,0-0.08,0-0.11,0c-0.04,0-0.07,0-0.11,0c-1.45,0.03-2.9,0.05-4.35,0.08
	c-3.2,0.06-6.39,0.12-9.59,0.18c-1.76,0.04-3.52,0.07-5.27,0.1c-0.6,0.01-1.2,0.02-1.79,0.04c-0.64,0.01-1.29,0.03-1.94,0.04
	c-0.22,0-0.46,0.03-0.69,0.01c-0.02,0-0.04,0-0.06,0c-0.42,0.01-0.84,0.02-1.25,0.03c-1.01,0.02-2.02,0.04-3.03,0.06c0,0,0,0,0,0
	c-0.01,0-0.01,0-0.02,0c-0.01,0-0.02,0-0.04,0c0,0,0,0,0,0c-0.01,0-0.02,0-0.03,0c0.01,0,0.02,0,0.03,0c-0.06,0-0.12,0.01-0.18,0
	c-0.64,0.01-1.28,0.02-1.92,0.04c-0.57,0.01-1.14,0.02-1.71,0.03c0,0-0.01,0-0.01,0c-0.03,0-0.05,0-0.08,0
	c-0.39,0.01-0.79,0.02-1.18,0.02c-0.93,0.02-1.87,0.04-2.8,0.05c-0.03,0-0.06,0-0.08,0c-0.07,0-0.14,0-0.22,0.01
	c-1.17,0.02-2.33,0.04-3.5,0.07c0,0,0,0,0,0c-0.01,0-0.02,0-0.03,0c-0.01,0-0.02,0-0.03,0c0,0,0,0,0,0c-0.04,0-0.09,0-0.13,0
	c0.04,0,0.08,0,0.12,0c0,0-0.01,0-0.01,0c-0.07,0.01-0.14,0.01-0.21,0c-1.19,0.02-2.39,0.05-3.58,0.07c0,0-0.01,0-0.01,0
	c-0.02,0-0.05,0-0.08,0c-0.58,0.01-1.16,0.02-1.75,0.03c-0.46,0.01-0.92,0.02-1.38,0.03c-0.18,0-0.38,0.02-0.57,0.01
	c-0.05,0-0.1,0-0.16,0c-0.76,0.01-1.51,0.03-2.27,0.04c-0.43,0.01-0.86,0.02-1.29,0.02c-0.16,0-0.32,0.01-0.49,0.01
	c-0.05,0-0.1,0-0.15,0c-1.33,0.03-2.66,0.05-3.98,0.08c0,0,0,0,0,0c-0.02,0-0.05,0-0.07,0c-0.04,0-0.09,0-0.13,0c0,0,0,0,0.01,0
	c-0.99,0.02-1.99,0.04-2.98,0.05c-0.09,0-0.17,0-0.26,0c-0.17,0.01-0.35,0.01-0.52,0.01c-0.07,0-0.15,0-0.23,0
	c-1.1,0.02-2.21,0.04-3.31,0.07c-0.96,0.02-1.93,0.04-2.9,0.05c-0.3,0.01-0.61,0.03-0.92,0.02c-0.13,0.01-0.25,0.01-0.38,0.01
	c-1.09,0.02-2.17,0.04-3.26,0.06c0,0,0.01,0,0.01,0c-0.04,0-0.08,0-0.13,0c0,0,0,0,0,0c0,0,0,0-0.01,0c-0.02,0-0.04,0-0.06,0
	c0.01,0,0.03,0,0.04,0c-0.03,0-0.05,0-0.08,0c-2.61,0.05-5.22,0.1-7.83,0.15c-1.38,0.03-2.76,0.05-4.14,0.08
	c-0.94,0.02-1.88,0.04-2.82,0.05c-0.18,0-0.35,0.01-0.52,0.01c-0.06,0.01-0.11,0.01-0.17,0.01c-0.1,0-0.21,0-0.32,0.01
	c-0.93,0.02-1.85,0.04-2.77,0.05c0,0,0,0,0.01,0c-0.04,0-0.08,0-0.12,0c-0.03,0-0.05,0-0.08,0c0,0,0,0,0,0
	c-2.55,0.05-5.11,0.1-7.66,0.14c0,0,0,0,0,0c-0.02,0-0.04,0-0.06,0c-0.05,0-0.09,0-0.14,0c0,0,0.01,0,0.01,0
	c-1.09,0.02-2.17,0.04-3.26,0.07c-0.06,0-0.12,0-0.17,0c-5.28,0.1-10.56,0.2-15.85,0.31c-2.78,0.05-5.57,0.11-8.36,0.16c0,0,0,0,0,0
	c-0.06,0.01-0.13,0.01-0.19,0c0,0-0.01,0-0.01,0c-0.82,0.02-1.64,0.03-2.47,0.05c-0.06,0-0.11,0-0.16,0c-0.07,0-0.14,0.01-0.21,0.01
	c-0.75,0.02-1.49,0.03-2.24,0.04c-1.34,0.03-2.68,0.05-4.03,0.08c-2.88,0.05-5.75,0.11-8.62,0.16c-1.12,0.02-2.25,0.04-3.37,0.07
	c-0.78,0.02-1.56,0.03-2.34,0.04c-0.02,0-0.04,0-0.07,0c-0.01,0-0.01,0-0.02,0c-0.04,0-0.08,0-0.12,0
	c-0.39,0.01-0.79,0.02-1.19,0.02c-0.3,0.01-0.6,0.01-0.89,0.02c-0.09,0.01-0.18,0.01-0.27,0.01c-0.18,0.01-0.36,0-0.55,0.01
	c-0.46,0.01-0.91,0.02-1.37,0.03c-0.24,0.01-0.49,0.03-0.74,0.01c-0.03,0-0.06,0-0.09,0c-0.41,0.01-0.82,0.02-1.23,0.02
	c-0.38,0.01-0.78,0.06-1.17,0.03c-0.06,0-0.11,0-0.17,0c-0.82,0.02-1.63,0.03-2.44,0.05c0,0,0,0,0.01,0
	c-0.74,0.02-1.48,0.03-2.22,0.04c-0.15,0.01-0.3,0.01-0.45,0.01c-0.73,0.02-1.47,0.03-2.2,0.04c-1.43,0.03-2.85,0.05-4.28,0.08
	c-2.67,0.05-5.34,0.1-8.02,0.15c-2.76,0.05-5.52,0.11-8.28,0.16c-1.29,0.02-2.58,0.05-3.87,0.07c-0.15,0-0.29,0.01-0.42,0
	c-0.04,0-0.08,0.01-0.12,0.01c-0.34,0-0.69,0.01-1.04,0.02c-0.12,0-0.23,0.01-0.34,0c-0.06,0.01-0.12,0.01-0.19,0.01
	c-0.01,0-0.01,0-0.02,0c-1.22,0.03-2.45,0.05-3.68,0.07c-0.01,0-0.03,0-0.04,0c0,0,0,0,0.01,0c-0.03,0-0.07,0-0.1,0
	c0.01,0,0.01,0,0.02,0c-3.84,0.08-7.68,0.15-11.52,0.22c-0.22,0.02-0.45,0.02-0.67,0.02c-0.12,0-0.24,0-0.35,0
	c-0.74,0.01-1.48,0.03-2.21,0.04c-0.07,0-0.15,0-0.22,0c0,0,0,0,0,0c-0.13,0-0.27,0.01-0.4,0.01c-0.13,0.01-0.27,0-0.4,0.01
	c-0.07,0-0.14,0-0.21,0c-0.01,0-0.02,0-0.02,0c-0.1,0.02-0.21,0.02-0.31,0.02c-0.07,0.01-0.15,0.01-0.22,0.01
	c-0.11,0.01-0.23,0.01-0.34-0.01c-0.32,0.01-0.66,0.04-0.99,0.02c-0.05,0-0.1,0-0.15,0c-0.69,0.01-1.38,0.02-2.07,0.04
	c-0.06,0-0.13,0-0.19,0c-0.26,0.01-0.51,0.01-0.77,0.02c-0.1,0-0.19,0.01-0.29,0.01c-0.11,0-0.23,0-0.34,0.01V458.39z"/>
<path class="st1" d="M21.75,460.97c-0.02,0-0.05,0-0.07,0C21.7,460.97,21.72,460.97,21.75,460.97z"/>
<path class="st1" d="M118.61,459.11c0.02,0,0.04,0,0.06,0c-0.07,0-0.13,0-0.19,0C118.53,459.11,118.57,459.11,118.61,459.11z"/>
<path class="st1" d="M145.2,458.6c0.04,0,0.08,0,0.11,0c-0.05,0-0.1,0-0.14,0C145.18,458.6,145.19,458.6,145.2,458.6z"/>
<path class="st1" d="M5.49,458.29c-0.04,0-0.07,0-0.1,0c-0.01,0-0.03,0-0.04,0C5.39,458.29,5.44,458.29,5.49,458.29z"/>
<path class="st1" d="M6.55,458.27c-0.04,0-0.07,0-0.11,0c-0.01,0-0.03,0-0.04,0C6.45,458.27,6.51,458.27,6.55,458.27z"/>
<path class="st1" d="M176.19,458.01c0.01,0,0.02,0,0.03,0c0.01,0,0.02,0,0.03,0c-0.02,0-0.05,0-0.07,0
	C176.18,458.01,176.19,458.01,176.19,458.01z"/>
<path class="st1" d="M187.95,457.78c0.01,0,0.02,0,0.04,0c0.01,0,0.01,0,0.02,0C187.98,457.78,187.96,457.78,187.95,457.78
	C187.94,457.78,187.95,457.78,187.95,457.78z"/>
<path class="st1" d="M248.22,456.62c-0.04,0-0.07,0-0.1,0C248.15,456.62,248.18,456.62,248.22,456.62z"/>
<path class="st1" d="M118.52,456.12c-0.03,0-0.05,0-0.08,0c-0.04,0-0.07,0-0.11,0C118.39,456.12,118.46,456.12,118.52,456.12z"/>
<path class="st1" d="M126.37,455.97c-0.02,0-0.05,0-0.07,0C126.32,455.97,126.34,455.97,126.37,455.97z"/>
<path class="st1" d="M303.92,455.55c0.01,0,0.01,0,0.02,0C303.93,455.55,303.92,455.55,303.92,455.55
	C303.92,455.55,303.92,455.55,303.92,455.55z"/>
<path class="st1" d="M183.92,454.86c-0.01,0-0.03,0-0.04,0c-0.03,0-0.06,0-0.1,0C183.83,454.86,183.87,454.86,183.92,454.86z"/>
<path class="st1" d="M371.68,454.25c0.02,0,0.04,0,0.06,0c-0.04,0-0.08,0-0.12,0C371.64,454.25,371.66,454.25,371.68,454.25z"/>
<path class="st1" d="M251.64,453.56c-0.01,0-0.02,0-0.02,0c-0.02,0-0.05,0-0.07,0C251.58,453.56,251.61,453.56,251.64,453.56z"/>
<path class="st1" d="M255.81,453.48c-0.06,0-0.13,0-0.19,0c0,0,0,0,0,0C255.68,453.48,255.74,453.48,255.81,453.48z"/>
<path class="st1" d="M267.26,453.26C267.26,453.26,267.26,453.26,267.26,453.26C267.26,453.26,267.26,453.26,267.26,453.26
	C267.26,453.26,267.26,453.26,267.26,453.26z"/>
<path class="st1" d="M289.59,452.84c-0.03,0-0.06,0-0.08,0c-0.04,0-0.08,0-0.11,0C289.46,452.84,289.52,452.84,289.59,452.84z"/>
<path class="st1" d="M307.47,452.49c-0.07,0-0.13,0-0.2,0C307.34,452.49,307.41,452.49,307.47,452.49z"/>
<path class="st1" d="M49.39,89.62c-0.64-0.54-0.7-1.48-0.19-2.11c0.01-0.01,0.02-0.02,0.02-0.03c-0.06-1.47-0.29-2.93-0.5-4.39
	c-0.01-0.06-0.02-0.12-0.03-0.17c-0.06-0.41-0.13-0.83-0.19-1.24c-0.03-0.2-0.07-0.41-0.1-0.61c-0.01-0.07-0.02-0.13-0.03-0.2
	c-0.02-0.12-0.04-0.24-0.06-0.37c-0.14-0.9-0.28-1.8-0.4-2.7c-0.11-0.84-0.19-1.69-0.27-2.54c-0.07-0.76-0.08-1.52-0.12-2.28
	c-0.04-0.77-0.05-1.54-0.05-2.31c0-1.46,0.02-2.9,0.23-4.35c0.25-1.7,0.55-3.39,0.8-5.09c0.47-3.23,0.9-6.47,1.64-9.65
	c0.16-0.7,0.34-1.39,0.49-2.09c0.15-0.7,0.23-1.41,0.32-2.12c0.04-0.43,0.07-0.86,0.08-1.3c0.02-0.49-0.05-1.03,0.1-1.5
	c0.25-0.75,0.96-1.2,1.72-1.2c0.82,0,1.46,0.79,1.43,1.57c-0.01,0.29-0.1,0.54-0.25,0.76c-0.01,0.61-0.03,1.22-0.09,1.83
	c-0.07,0.8-0.2,1.6-0.35,2.39c-0.13,0.72-0.32,1.42-0.49,2.13c-0.18,0.78-0.36,1.56-0.51,2.35c-0.59,3.16-0.95,6.35-1.47,9.52
	c-0.19,1.17-0.41,2.34-0.56,3.52c0-0.01,0-0.02,0-0.02c-0.12,1.19-0.11,2.38-0.11,3.57c0.03,1.24,0.07,2.48,0.12,3.71
	c0.03,0.67,0.12,1.34,0.18,2c0.06,0.64,0.18,1.29,0.27,1.93c0,0,0,0,0,0c0.09,0.6,0.19,1.21,0.29,1.82c0.02,0.1,0.03,0.2,0.05,0.3
	c0.04,0.27,0.09,0.54,0.13,0.81c0.04,0.24,0.07,0.48,0.11,0.72c0.01,0.04,0.01,0.08,0.02,0.11c0,0.02,0.01,0.04,0.01,0.07
	c0,0,0,0,0,0c0.01,0.03,0.01,0.07,0.02,0.1c0.12,0.78,0.22,1.57,0.32,2.35c0.12,0.93,0.21,1.87,0.21,2.8c0,0.41-0.06,0.86-0.28,1.21
	c-0.11,0.17-0.24,0.3-0.39,0.42c-0.02,0.02-0.04,0.05-0.06,0.07c-0.28,0.35-0.71,0.53-1.14,0.53
	C50.01,89.97,49.66,89.85,49.39,89.62z"/>
<path class="st1" d="M53.13,46.33C53.13,46.34,53.13,46.34,53.13,46.33C53.13,46.34,53.13,46.34,53.13,46.33
	C53.13,46.34,53.13,46.34,53.13,46.33z"/>
<path class="st1" d="M133.32,143.8c-0.27-5.34-0.53-10.68-0.79-16.02c-0.3-6.12-0.61-12.24-0.91-18.36c-0.3-6.07-0.6-12.13-0.9-18.2
	c-0.01-0.25-0.02-0.5-0.04-0.76c-0.04-0.82,0.68-1.51,1.47-1.53c0.84-0.02,1.49,0.66,1.53,1.47c0,0.03,0,0.05,0,0.08
	c0.29,5.85,0.58,11.7,0.87,17.56c0.3,6.12,0.61,12.25,0.91,18.37c0.28,5.63,0.56,11.25,0.84,16.88c0,0.06,0.01,0.13,0.01,0.2
	c0.01,0.05,0.01,0.11,0.01,0.16c0,0.03,0,0.06,0,0.09c0.04,0.82-0.67,1.52-1.47,1.53c-0.01,0-0.02,0-0.03,0
	C134,145.27,133.37,144.61,133.32,143.8z"/>
<path class="st1" d="M82.61,200.79c-2.21-0.27-1.18-2.98-1.24-4.47c0.5-2.96,0.44-5.98,0.95-8.95c1.04-5.89,1.37-11.84,1.11-17.81
	c0,0,0,0,0,0.01c0-4.09-0.54-8.15-0.74-12.23c-0.09-4.22,0.04-8.44-0.09-12.66c-0.96-1.01-0.01-2.85,1.39-2.56
	c1.88,0.41,1.62,2.64,1.65,4.12c0.03,3.22,0.02,6.45,0.02,9.67c0-0.01,0-0.01,0-0.02c0.34,7.11,1.07,14.22,0.82,21.36
	c-0.09,5.23-1.44,10.34-1.66,15.56c-0.04,1.63-0.47,3.22-0.5,4.85C84.23,198.89,84.34,200.84,82.61,200.79z"/>
<path class="st1" d="M169.93,250.09c-1.25-8.34-0.12-16.83-0.73-25.24c-0.14-3.07-0.78-6.08-1.14-9.12
	c-0.37-4.21-0.21-8.44-0.28-12.66c-0.04-0.81-0.08-1.62-0.17-2.43c-0.4-0.61-0.27-1.39,0.24-1.92c0.61-0.61,1.6-0.58,2.2,0.03
	c0.55,0.53,0.53,1.44,0.61,2.15c0.41,5.51-0.21,11.07,0.66,16.55c1.39,7.66,1.01,15.48,1.07,23.22c-0.25,3.09,0.13,6.12,0.54,9.16
	C173.06,251.76,170.11,252.05,169.93,250.09z"/>
<path class="st1" d="M33.68,242.14c-0.07-0.81-0.02-1.64-0.02-2.45c0-0.74,0-1.48,0-2.23c0-1.66,0.07-3.32,0.16-4.98
	c0.08-1.51,0.12-3.02,0.25-4.52c0.14-1.66,0.29-3.31,0.39-4.98c0.05-0.72,0.04-1.46,0.04-2.18c0-0.79,0-1.59,0-2.38
	c0.01-1.61,0.03-3.22,0.06-4.83c0.07-3.27,0.05-6.54,0.05-9.8c0-0.92,0-1.84,0.01-2.76c0.01-0.86,0.02-1.7,0.12-2.55
	c-0.01,0.05-0.01,0.1-0.02,0.14c0-0.03,0.01-0.07,0.01-0.11c0-0.82,0.79-1.46,1.57-1.43c0.85,0.04,1.43,0.75,1.43,1.57
	c0,0.22-0.04,0.44-0.07,0.66c-0.1,1.64-0.05,3.29-0.05,4.93c0,1.68,0,3.36,0,5.04c0,3.15-0.1,6.3-0.12,9.45
	c-0.01,1.56,0.04,3.12-0.06,4.68c-0.11,1.71-0.27,3.41-0.41,5.12c-0.12,1.54-0.16,3.09-0.25,4.63c-0.09,1.6-0.12,3.2-0.13,4.8
	c0,1.26-0.01,2.51,0,3.77c0,0.05,0.01,0.1,0.01,0.14c0.07,0.81-0.55,1.55-1.36,1.62c-0.04,0-0.08,0.01-0.13,0.01
	C34.41,243.51,33.75,242.91,33.68,242.14z"/>
<path class="st1" d="M34.74,198.63c0,0.02,0,0.04-0.01,0.06C34.73,198.67,34.73,198.65,34.74,198.63z"/>
<path class="st1" d="M128.61,299.34c-0.83-0.15-1.31-0.94-1.2-1.75c0.23-1.69,0.47-3.38,0.7-5.07c0.26-2.88,0.44-5.76,0.78-8.63
	c1.12-7.93,1.76-15.9,2.4-23.89c0.66-5.05,1.36-10.1,1.15-15.21c0.1-1.94,3.06-1.83,3,0.14c0.25,8.29-1.6,16.45-1.93,24.73
	c-0.32,6.52-1.69,12.92-2.11,19.43c-0.13,3.04-0.65,6.03-1.03,9.04C130.25,298.95,129.38,299.49,128.61,299.34z"/>
<path class="st1" d="M44.4,299.82c-2.19-0.6-0.77-3.56-0.8-5.16c0.68-3.34,1.43-6.67,1.7-10.08c-0.01,0.07-0.02,0.13-0.02,0.2
	c0.29-6.54,0.19-13.1,0.86-19.63c0.38-7.16,0.37-14.33,0.74-21.49c0.1-1.94,3.06-1.83,3,0.14c-0.26,6.56-0.44,13.12-0.62,19.68
	c-0.35,5.54-0.93,11.06-0.8,16.62c0.14,5.48-1.06,10.84-2.06,16.19C46.22,297.67,46.44,300.09,44.4,299.82z"/>
<path class="st1" d="M90.55,346.89c-0.81-0.04-1.46-0.76-1.43-1.57c0.04-0.76,0.03-1.51,0.02-2.27c0,0.04,0,0.08,0,0.11
	c-0.03-1.58-0.04-3.15-0.01-4.72c0.03-1.6,0.09-3.2,0.11-4.8c0.01-0.77,0.01-1.54,0.05-2.3c0.05-0.8,0.14-1.59,0.2-2.38
	c0.13-1.63,0.14-3.26,0.14-4.9c0-1.11,0-2.22,0.02-3.33c0.01-1.13,0.07-2.27,0.13-3.4c0.02-0.49,0.1-0.99,0.15-1.48
	c0.06-0.59,0.11-1.19,0.18-1.79c0.13-1.09,0.26-2.17,0.39-3.26c0,0.01,0,0.02,0,0.02c0.07-1.17,0.15-2.35,0.22-3.52
	c0.03-0.47,0-0.96,0-1.43c0-0.57,0-1.13,0-1.7c-0.07-1.29-0.15-2.57-0.23-3.86c-0.07-1.08-0.16-2.25,0.21-3.29
	c0.22-0.63,0.72-1.06,1.37-1.21c0.6-0.14,1.16,0.14,1.65,0.45c0.7,0.42,0.89,1.39,0.45,2.07c-0.18,0.28-0.44,0.48-0.73,0.59
	c0,0.15-0.01,0.3,0,0.44c0-0.04,0-0.07,0-0.11c0,0.04,0,0.09,0,0.13c0,0.02,0,0.05,0,0.07c0-0.02,0-0.05,0-0.07
	c0.04,1.29,0.16,2.58,0.23,3.87c0.07,1.31,0.05,2.63,0.05,3.95c0,0.46-0.05,0.93-0.07,1.39c-0.05,0.77-0.1,1.53-0.14,2.29
	c-0.04,0.54-0.12,1.08-0.19,1.62c-0.07,0.63-0.15,1.26-0.22,1.89c-0.09,0.91-0.19,1.82-0.28,2.72c-0.08,0.79-0.09,1.58-0.13,2.38
	c-0.07,1.55-0.04,3.12-0.05,4.68c0,1.59,0,3.18-0.13,4.77c-0.07,0.8-0.16,1.59-0.21,2.39c-0.04,0.76-0.05,1.53-0.06,2.29
	c-0.03,2.77-0.13,5.54-0.12,8.31c0.03,1.17,0.06,2.34,0.01,3.51c-0.04,0.79-0.71,1.43-1.5,1.43
	C90.6,346.89,90.58,346.89,90.55,346.89z"/>
<path class="st1" d="M93.45,299.39c0-0.01,0-0.02,0-0.02C93.45,299.38,93.45,299.39,93.45,299.39
	C93.45,299.4,93.45,299.4,93.45,299.39z"/>
<path class="st1" d="M227.26,340.71c0.21-3.5,0.15-7.04,0.46-10.54c0.41-2.55,1.06-5.08,0.92-7.69c-0.12-7.9-1.46-15.74-1.63-23.63
	c0.13-1.69-0.4-4.07,1.36-5.04c1.99-0.88,4.12,2,1.68,2.99c-0.29,11.63,3.2,23.32,0.51,34.85c0.01-0.07,0.02-0.13,0.02-0.2
	c-0.13,3.01-0.1,6.02-0.34,9.03c0.03,0.8-0.54,1.52-1.36,1.6C228.09,342.14,227.3,341.52,227.26,340.71z"/>
<path class="st1" d="M259.3,295.47c-1.47-0.49-0.93-2.04-0.72-3.17c0.2-7.64,0.65-15.27,0.88-22.91c-0.15-5.64-0.59-11.28-0.7-16.93
	c0.06-1.58-0.97-4.62,1.44-4.73c1.12,0.05,1.54,1.14,1.43,2.12c0.08,1.69,0.17,3.38,0.22,5.08c0.14,7.44,1.11,14.88,0.25,22.32
	c-0.19,4.65-0.24,9.31-0.47,13.95C261.55,292.77,261.65,296,259.3,295.47z"/>
<path class="st1" d="M296.62,255.55c-0.77-0.36-1.03-1.24-0.71-2c0.01-0.02,0.01-0.03,0.02-0.05c0.03-0.07,0.05-0.13,0.07-0.2
	c-0.01,0.02-0.01,0.04-0.02,0.06c0,0.01-0.01,0.02-0.01,0.03c0-0.01,0.01-0.02,0.01-0.03c-0.01,0.04-0.02,0.09-0.03,0.13
	c0.01-0.05,0.03-0.09,0.04-0.14c0-0.01,0-0.01,0.01-0.02c0,0.01,0,0.01-0.01,0.02c0.01-0.03,0.01-0.06,0.02-0.08
	c0.01-0.18,0.01-0.36,0-0.54c-0.02-0.6-0.07-1.19-0.15-1.79c-0.12-0.57-0.25-1.14-0.3-1.72c-0.07-0.7-0.04-1.42-0.04-2.12
	c0-0.72-0.02-1.43-0.02-2.15c-0.01-1.74-0.01-3.48,0.01-5.21c0.01-0.81,0.07-1.62,0.11-2.43c0.04-0.75,0.12-1.5,0.14-2.25
	c0.04-1.73,0.05-3.46,0.05-5.19c0-3.16,0.01-6.32,0.12-9.48c0.11-3.28,0.12-6.56,0.12-9.84c0-1.81,0-3.62,0-5.44
	c0-0.95,0-1.91,0-2.86c0-0.4,0.01-0.79,0.01-1.19c0-0.61-0.04-1.23,0.21-1.8c0.21-0.48,0.71-0.8,1.23-0.85
	c0.09-0.01,0.19-0.01,0.29-0.01c0.82,0,1.46,0.79,1.43,1.57c-0.01,0.21-0.06,0.4-0.15,0.58c-0.06,3.24-0.02,6.47-0.02,9.71
	c0,3.29,0,6.57-0.11,9.86c-0.05,1.53-0.11,3.06-0.12,4.6c-0.01,1.75-0.01,3.5-0.01,5.25c0,1.7-0.01,3.39-0.05,5.08
	c-0.04,1.5-0.23,2.98-0.25,4.48c-0.04,3.01-0.02,6.01,0.01,9.02c0.01,0.24,0.03,0.47,0.05,0.71c0.08,0.43,0.19,0.86,0.25,1.3
	c0.06,0.4,0.1,0.79,0.13,1.2c0.03,0.39,0.04,0.78,0.04,1.16c0,0.25,0.01,0.51-0.03,0.76c-0.07,0.41-0.2,0.78-0.36,1.16
	c-0.22,0.55-0.8,0.85-1.36,0.85C297.04,255.68,296.82,255.64,296.62,255.55z"/>
<path class="st1" d="M295.99,253.36c0,0,0-0.01,0-0.01c0,0,0,0,0,0C295.99,253.35,295.99,253.36,295.99,253.36
	C295.99,253.36,295.99,253.36,295.99,253.36z"/>
<path class="st1" d="M213.03,202.77c-0.3-0.54-0.34-1.15-0.36-1.75c-0.01-0.41-0.02-0.82-0.02-1.23c0-0.68-0.01-1.38,0.06-2.05
	c0.16-1.48,0.35-2.97,0.53-4.45c0.07-0.9,0.16-1.79,0.17-2.69c0.02-1.17,0.04-2.34,0.04-3.5c0-1.93,0.03-3.86,0-5.79
	c0,0.01,0,0.02,0,0.02c0-0.04,0-0.08,0-0.13c0-0.03,0-0.07,0-0.1c-0.01-0.43-0.02-0.86-0.03-1.28c-0.02-0.79-0.03-1.58-0.05-2.37
	c0,0,0,0,0,0.01c0,0,0-0.01,0-0.01c0-0.01,0-0.02,0-0.04c0-0.01,0-0.02,0-0.03c0,0,0,0,0,0c0,0,0,0,0,0
	c-0.09-1.5-0.17-2.99-0.27-4.48c-0.07-1.04-0.14-2.08-0.21-3.12c-0.05-0.68-0.04-1.36-0.05-2.04c-0.02-0.88-0.08-1.77-0.06-2.66
	c0.02-0.87,0.04-1.73,0.05-2.6c0.04-1.74,0.11-3.47,0.18-5.21c0.07-1.7,0.13-3.39,0.21-5.09c0.1-1.97,0.24-3.94,0.24-5.91
	c0-0.82,0.79-1.46,1.57-1.43c0.85,0.04,1.43,0.76,1.43,1.57c0,1.43-0.09,2.86-0.16,4.29c-0.09,1.75-0.16,3.51-0.24,5.26
	c-0.07,1.56-0.13,3.12-0.19,4.68c-0.06,1.52-0.06,3.04-0.1,4.55c0.03,1.07,0.05,2.15,0.08,3.22c0.02,0.91,0.08,1.82,0.14,2.74
	c0.06,0.89,0.12,1.79,0.17,2.69c0.07,1.12,0.17,2.24,0.2,3.36c0-0.02,0-0.03,0-0.05c0,0.02,0,0.04,0,0.06c0,0.05,0,0.09,0,0.14
	c0-0.04,0-0.08,0-0.12c0,0.02,0,0.03,0,0.05c0,0.03,0,0.07,0,0.1c0.01,0.43,0.02,0.85,0.02,1.28c0.02,0.8,0.03,1.59,0.05,2.39
	c0-0.01,0-0.02,0-0.03c0,0.03,0,0.05,0,0.08c0,0.04,0,0.08,0,0.12c0-0.01,0-0.02,0-0.03c0.02,1.21,0.01,2.43,0.01,3.64
	c0,1.32,0.02,2.65,0,3.98c-0.02,0.76-0.03,1.52-0.04,2.28c-0.02,0.72-0.11,1.45-0.16,2.17c-0.09,1.26-0.29,2.52-0.45,3.78
	c-0.06,0.58-0.11,1.16-0.14,1.74c-0.03,0.56-0.02,1.13-0.02,1.69c0.01,0.3,0.02,0.6,0.04,0.9c0.38,0.71,0.07,1.64-0.63,2.01
	c-0.22,0.12-0.46,0.17-0.69,0.17C213.83,203.57,213.31,203.27,213.03,202.77z"/>
<path class="st1" d="M213.45,181.12c0,0.06,0,0.12,0,0.18C213.45,181.24,213.45,181.18,213.45,181.12z"/>
<path class="st1" d="M213.37,177.38c0,0.02,0,0.05,0,0.07c0,0,0,0,0,0C213.37,177.43,213.37,177.4,213.37,177.38z"/>
<path class="st1" d="M276.24,153.12c-0.82-0.04-1.46-0.75-1.43-1.57c0.11-3.21,0.14-6.41,0.54-9.6c0.57-6.76,0.74-13.54,1.61-20.27
	c0.13-8.77,1.45-17.43,2.16-26.15c0.06-1.37,0.12-2.74,0.11-4.11c-0.15-0.95,0.59-1.87,1.57-1.82c1.74,0.14,1.43,2.14,1.43,3.39
	c-0.08,2.16-0.15,4.32-0.42,6.47c-0.56,6.08-1.63,12.13-1.64,18.25c-0.03,3.29-0.5,6.55-0.83,9.82c-0.5,6.41-0.79,12.84-1.41,19.24
	C277.62,148.54,278.8,153.14,276.24,153.12z"/>
<path class="st1" d="M162.61,91.01c-0.83-3.31,0.17-6.88-0.02-10.28c0.09-11.37,0.2-22.73-0.45-34.08
	c-0.05-1.64,0.58-5.05,2.86-4.24c1.1,0.44,1.39,2.01,0.36,2.69c-0.59,3.5,0.13,7.18,0.23,10.72c0.09,11.18,0.16,22.38-0.29,33.55
	C167.19,91.34,163.74,93.25,162.61,91.01z"/>
<path class="st1" d="M296.76,90.66c-1.66-1.16-0.39-3.4-0.36-5.02c-0.01,0.07-0.02,0.13-0.02,0.2c0.68-6.03-0.21-12.07-0.53-18.09
	c-0.27-5.3,0.05-10.59,0.41-15.88c0.11-2.83,0.1-5.67,0.09-8.5c-0.17-1.4,0.1-3.78,2.05-3.26c0.86,0.27,1.21,1.2,0.93,2.02
	c0.25,7.42-0.58,14.81-0.59,22.22c0.07,8.01,1.8,16.1,0.25,24.06C300.26,89.9,298.25,91.58,296.76,90.66z"/>
<path class="st1" d="M396.22,91.1c-2.08-0.24-1.35-2.93-1.34-4.38c0.35-2.44,0.58-4.91,0.56-7.38c0.37-8.17-0.74-16.46,0.93-24.52
	c1.39-4.7,0.61-9.63,2.44-14.08c-0.38-1.61,2.08-2.87,3.07-1.43c0.82,1.49-0.81,3.06-0.97,4.59c-0.56,2.12-0.21,4.33-0.65,6.47
	c-0.5,2.99-1.22,5.95-1.59,8.96c-0.45,5.8-0.06,11.64-0.19,17.45c0.18,4.32-0.61,8.59-0.68,12.88
	C397.79,90.49,397.01,91.14,396.22,91.1z"/>
<path class="st1" d="M410.8,157.03c-2.03-0.5-0.88-2.9-0.81-4.33c0.36-3.64,0.09-7.4,1.58-10.82c1.45-3.99,1.65-8.26,2.5-12.39
	c0.99-4.55,1.96-9.1,2.41-13.74c0.33-5.86,0.32-11.72,0.88-17.57c0.55-2.75,0.14-8.95,4.16-8.66c1.93,0.11,1.83,3.02-0.12,3
	c-2.15,8.13-1.15,16.71-2.12,25c-0.47,5.08-1.88,9.99-2.71,15c-0.51,2.92-0.75,5.9-1.66,8.73c-0.74,2.34-1.72,4.62-1.59,7.13
	c-0.23,2.49-0.3,4.98-0.78,7.44C412.42,156.63,411.59,157.18,410.8,157.03z"/>
<path class="st1" d="M341.87,203.14c-0.8-0.04-1.48-0.76-1.43-1.57c0.18-2.96,1.02-5.83,1.3-8.77c-0.01,0.07-0.02,0.13-0.02,0.2
	c0.42-6.7-0.52-13.38-1.04-20.05c-0.55-7.22-0.41-14.47-0.08-21.71c0.03-0.76,0.66-1.37,1.41-1.43c1.36-0.11,2.62,1.82,1.54,2.86
	c-0.26,6.31-0.38,12.63,0.04,18.94c0.47,7.23,1.64,14.48,1.1,21.74c0.01-0.07,0.02-0.13,0.02-0.2c-0.24,2.45-0.8,4.85-1.16,7.29
	C343.52,201.6,343.38,203.21,341.87,203.14z"/>
<path class="st1" d="M459.72,194.42c-0.16-0.56-0.15-1.18-0.22-1.76c-0.1-0.58-0.25-1.14-0.4-1.71c-0.13-0.54-0.13-1.11-0.13-1.66
	c0-1.12,0.2-2.25,0.41-3.34c0.25-1.31,0.53-2.63,0.71-3.95c0.17-1.62,0.13-3.25,0.13-4.88c0-1.06,0-2.12,0-3.18
	c0-2.37-0.03-4.74-0.05-7.1c0,0.03,0,0.05,0,0.08c0-0.05,0-0.1,0-0.15c0-0.02,0-0.04,0-0.06c0,0.01,0,0.03,0,0.04
	c-0.05-2.23-0.1-4.46-0.16-6.69c-0.05-1.62-0.1-3.24-0.17-4.86c-0.04-0.81-0.04-1.61-0.03-2.42c0-0.31,0.04-0.62,0.1-0.92
	s0.15-0.66,0.32-0.91c0.14-0.21,0.29-0.41,0.5-0.56c0.26-0.19,0.62-0.31,0.94-0.34c0.52-0.05,1.07,0.12,1.54,0.33
	c0.75,0.32,1.05,1.28,0.71,2c-0.22,0.47-0.65,0.75-1.12,0.83c0,0.3,0,0.61,0,0.91c0-0.03,0-0.05,0-0.08c0,0.04,0,0.08,0,0.11
	c0,0.03,0,0.06,0,0.09c0-0.02,0-0.05,0-0.07c0.03,1.2,0.09,2.41,0.13,3.6c0.03,1.06,0.07,2.12,0.1,3.18
	c0.05,1.71,0.08,3.41,0.11,5.12c0.07,3.11,0.07,6.23,0.07,9.34c0,1.55,0.04,3.11-0.01,4.66c-0.02,0.99-0.09,1.98-0.23,2.96
	c-0.09,0.59-0.2,1.17-0.31,1.75c-0.22,1.14-0.45,2.27-0.61,3.41c-0.05,0.49-0.09,0.97-0.09,1.46c0.01,0.16,0.02,0.33,0.03,0.49
	c0.08,0.4,0.19,0.81,0.29,1.2c0.11,0.41,0.16,0.83,0.22,1.25c0.05,0.35,0.06,0.7,0.1,1.06c0.01,0.04,0.02,0.08,0.04,0.11
	c0.23,0.79-0.37,1.62-1.13,1.8c-0.11,0.03-0.22,0.04-0.33,0.04C460.49,195.59,459.92,195.1,459.72,194.42z"/>
<path class="st1" d="M460.17,166.73c0,0.01,0,0.01,0,0.02c0,0.02,0,0.05,0,0.07C460.17,166.79,460.17,166.76,460.17,166.73z"/>
<path class="st1" d="M462.8,154.14c0-0.01,0-0.02,0-0.03c0,0.02,0,0.03,0,0.05C462.8,154.15,462.8,154.15,462.8,154.14z"/>
<path class="st1" d="M431.82,254.86c-0.6-4.28,0.43-8.58,0-12.87c-1.13-6.47-0.36-13.07-0.56-19.6c-0.04-2.97-0.25-5.92-0.62-8.87
	c-0.6-4.35-2.06-8.63-2.03-13.04c0.06-0.99,0.59-2.17,1.63-2.42c1.19-0.27,2.92,0.34,2.66,1.82c-0.12,0.64-0.68,1.15-1.31,1.22
	c0.03,0.75,0.09,1.49,0.21,2.24c-0.01-0.07-0.02-0.14-0.04-0.2c0.92,5.15,2.16,10.27,2.37,15.51c0.24,5.99,0.08,11.97,0.09,17.97
	c0.09,3.02,0.92,5.97,0.7,9c-0.17,2.82-0.44,5.66-0.19,8.48C435.2,256.07,432.31,256.83,431.82,254.86z"/>
<path class="st1" d="M368.45,292.9c-0.85-0.04-1.43-0.75-1.43-1.57c0-0.18,0-0.35,0-0.53c-0.02-0.85-0.06-1.71-0.09-2.56
	c-0.03-0.86-0.03-1.73-0.03-2.59c0,0.04,0,0.08,0,0.12c0-0.05,0-0.1,0-0.14c0-0.02,0-0.04,0-0.06c0,0.02,0,0.04,0,0.05
	c-0.02-0.81-0.06-1.62-0.12-2.44c-0.05-0.71-0.17-1.42-0.26-2.12c-0.22-1.13-0.5-2.27-0.65-3.41c-0.17-1.24-0.24-2.49-0.33-3.73
	c-0.05-0.75-0.13-1.5-0.21-2.25c-0.07-0.7-0.12-1.39-0.22-2.09c-0.14-1.07-0.29-2.13-0.43-3.2c-0.24-1.75-0.51-3.5-0.64-5.27
	c-0.18-2.45-0.14-4.88-0.1-7.33c0.01-0.8,0.07-1.6,0.06-2.4c0-0.03,0-0.07,0-0.1c-0.05-0.24-0.05-0.49,0.01-0.72
	c0.17-0.73,0.78-1.27,1.55-1.23c0.47,0.02,0.93,0.29,1.19,0.68c0.42,0.28,0.69,0.77,0.66,1.31c-0.02,0.37-0.18,0.72-0.43,0.97
	c-0.01,0.6-0.04,1.2-0.04,1.8c-0.02,1.2-0.03,2.39-0.05,3.59c0.03,1.53,0.11,3.06,0.27,4.58c0.13,1.21,0.32,2.42,0.49,3.62
	c0.17,1.27,0.34,2.53,0.52,3.79c0.15,1.12,0.22,2.25,0.33,3.38c0.14,1.43,0.18,2.88,0.37,4.31c0.3,1.85,0.79,3.67,0.92,5.55
	c0.06,0.86,0.1,1.72,0.12,2.59c0.02,0.78,0.02,1.56,0.03,2.33c0.05,1.21,0.11,2.41,0.11,3.62c0,0.8-0.74,1.43-1.51,1.43
	C368.49,292.9,368.47,292.9,368.45,292.9z"/>
<path class="st1" d="M366.89,285.63C366.89,285.63,366.89,285.63,366.89,285.63c0,0.01,0,0.02,0,0.03
	C366.89,285.64,366.89,285.64,366.89,285.63z"/>
<path class="st1" d="M341.92,332.61c-0.13-6.49-1.61-12.88-2.04-19.36c-0.62-7.08-0.47-14.22-0.38-21.33c-0.22-1.72,2.1-2.79,3-1.16
	c0.27,0.58,0.27,1.21,0.27,1.84c-0.06,0.75,0.2,1.65-0.33,2.26c-0.05,8.1-0.07,16.22,1.1,24.26c0.34,3.61,1.08,7.18,1.3,10.8
	c-0.1,1.3,0.58,3.37-1.13,3.82C342.95,333.91,342.06,333.42,341.92,332.61z"/>
<path class="st1" d="M440.43,319.93c-0.54-0.28-0.97-0.67-1.11-1.29c-0.1-0.46-0.02-0.97,0.04-1.44c0.08-0.63,0.19-1.25,0.3-1.87
	c0.25-1.35,0.45-2.71,0.65-4.06c0.14-1.34,0.3-2.69,0.43-4.03c0.16-1.62,0.29-3.24,0.48-4.86c0,0.04-0.01,0.07-0.01,0.11
	c0-0.03,0.01-0.07,0.01-0.1c0,0.04-0.01,0.07-0.01,0.11c0.15-1.28,0.29-2.56,0.44-3.84c-0.01,0.07-0.02,0.13-0.02,0.2
	c0.03-0.24,0.05-0.47,0.08-0.71c-0.01,0.07-0.02,0.13-0.02,0.2c0.01-0.08,0.02-0.16,0.03-0.25c-0.01,0.07-0.02,0.13-0.02,0.2
	c0.14-1.21,0.34-2.41,0.51-3.62c0.09-0.67,0.23-1.34,0.35-2c0.04-0.24,0.09-0.48,0.14-0.73c0.09-0.43,0.15-0.88,0.4-1.24
	c0.5-0.71,1.54-0.95,2.23-0.34c0.38,0.34,0.55,0.76,0.55,1.26c0,0.24-0.07,0.47-0.19,0.66c-0.45,2.09-0.72,4.23-1.02,6.34
	c0,0.01,0,0.02,0,0.03c0,0,0,0.01,0,0.01c-0.02,0.15-0.03,0.3-0.05,0.46c-0.14,1.25-0.29,2.5-0.43,3.76
	c0.01-0.07,0.02-0.13,0.02-0.2c-0.01,0.08-0.02,0.17-0.03,0.25c0.01-0.07,0.02-0.13,0.02-0.2c-0.15,1.37-0.27,2.74-0.4,4.11
	c-0.12,1.22-0.25,2.44-0.39,3.66c-0.14,1.29-0.33,2.56-0.52,3.84c-0.17,1.11-0.41,2.2-0.57,3.31c0,0.03-0.01,0.07-0.01,0.1
	c0.28,0.42,0.35,0.97,0.11,1.46c-0.25,0.52-0.81,0.86-1.38,0.86C440.84,320.07,440.63,320.03,440.43,319.93z"/>
<path class="st1" d="M441.21,302.48c0,0.03-0.01,0.06-0.01,0.09C441.2,302.54,441.21,302.51,441.21,302.48z"/>
<path class="st1" d="M411.76,378.03c-2.48-0.48-0.37-5.26,0-6.86c-0.78-3.87,0.44-7.72,0.39-11.61c0.14-10.12,1.92-20.11,1.69-30.23
	c0.07-0.85,0.21-1.68,0.59-2.46c0.61-1.24,2.71-2.32,3.57-0.77c0.45,0.83-0.02,1.85-0.89,2.17c-0.56,1.45-0.24,3.18-0.32,4.72
	c0.19,5.83-0.81,11.58-1.2,17.38c-0.41,4.78-0.28,9.59-0.79,14.37c-0.14,1.2-0.37,2.4-0.36,3.61c0.01,1.16,0.48,2.32,0.24,3.48
	c-0.58,1.62-0.92,3.3-1.18,4.99C413.38,377.63,412.54,378.18,411.76,378.03z"/>
<path class="st1" d="M289.36,378.17c-0.81-0.15-1.34-0.94-1.2-1.75c0-0.02,0.01-0.05,0.01-0.07c0.03-0.73,0.01-1.46,0.01-2.19
	c0-0.79-0.01-1.58-0.03-2.37c-0.06-1.06-0.2-2.11-0.21-3.17c-0.01-1.05-0.01-2.1-0.02-3.15c0,0.03,0,0.06,0,0.09
	c0-0.05,0-0.11,0-0.16c0-0.01,0-0.03,0-0.04c0,0.01,0,0.02,0,0.03c-0.15-6.38-0.07-12.78-0.04-19.16c0.01-3.49-0.01-6.99-0.01-10.48
	c-0.2-0.27-0.31-0.61-0.31-0.97c0-0.53,0.04-1.06,0.23-1.55c0.22-0.57,0.68-0.98,1.3-1.04c0.67-0.06,1.3,0.35,1.54,0.97
	c0.3,0.78,0.23,1.61,0.24,2.43c0,0.47,0.01,0.95,0.01,1.43c0,0.7,0.01,1.4,0.01,2.1c0,1.66,0,3.33-0.01,5
	c-0.02,3.41-0.03,6.83-0.04,10.25c0,3.11-0.01,6.23,0.03,9.34c0.04,1.75,0.05,3.49,0.07,5.24c0.04,0.58,0.11,1.15,0.15,1.72
	c0.05,0.79,0.07,1.59,0.08,2.38c0.01,0.63,0.01,1.26,0.01,1.89c0,0.67,0.05,1.36-0.07,2.02c-0.13,0.72-0.78,1.23-1.48,1.23
	C289.54,378.2,289.45,378.19,289.36,378.17z"/>
<path class="st1" d="M287.92,365.4c0,0,0,0.01,0,0.01c0,0.02,0,0.04,0,0.07C287.92,365.45,287.92,365.42,287.92,365.4z"/>
<path class="st1" d="M157,385.98c-0.7-0.33-1.11-1.28-0.71-2c1.17-2.11,0.46-4.69,0.66-7c0-2.6,0.62-5.15,0.46-7.76
	c-0.43-6.67-0.26-13.35-0.06-20.02c0.06-2.04,0.05-4.09,0.14-6.13c0.07-1.19,0.23-2.47,1.14-3.34c0.54-0.61,1.47-0.72,2.11-0.18
	c0.61,0.51,0.73,1.5,0.18,2.11c-0.98,2-0.3,4.61-0.56,6.82c-0.1,5.11-0.34,10.23-0.2,15.34c0-0.01,0-0.02,0-0.03
	c0.54,5.18-0.08,9.84-0.23,14.95C159.88,380.79,160.36,386.84,157,385.98z"/>
<path class="st1" d="M37.86,384.29c-0.15-0.43-0.25-0.86-0.29-1.3c-0.05-0.48,0.14-0.98,0.29-1.43c0.07-0.33,0.13-0.67,0.18-1.01
	c0.06-0.62,0.09-1.24,0.08-1.86c-0.01-0.39-0.04-0.77-0.09-1.16c-0.05-0.29-0.12-0.58-0.19-0.87c-0.11-0.36-0.22-0.72-0.28-1.1
	c-0.04-0.21-0.06-0.43-0.09-0.64c-0.05-0.39-0.1-0.77-0.15-1.16c-0.11-0.88-0.21-1.75-0.31-2.62c-0.17-1.48-0.3-2.96-0.4-4.45
	c-0.21-3.35-0.39-6.71-0.5-10.06c-0.04-1.33-0.09-2.66-0.13-4c-0.05-1.57-0.15-3.16-0.05-4.73c0.06-1.02,1.19-1.77,2.14-1.28
	c0.42,0.21,0.66,0.51,0.84,0.94c0.16,0.34,0.29,0.67,0.29,1.06c0,0.32-0.12,0.61-0.31,0.85c0,0.28,0.01,0.57,0.01,0.85
	c0-0.03,0-0.06,0-0.09c0,0.04,0,0.07,0,0.11c0,0.03,0,0.06,0,0.09c0-0.03,0-0.06,0-0.08c0.1,3.22,0.2,6.44,0.34,9.67
	c0.08,1.72,0.17,3.43,0.28,5.14c0.1,1.61,0.23,3.21,0.37,4.82c0.07,0.81,0.18,1.62,0.29,2.43c0.11,0.88,0.22,1.75,0.33,2.63
	c-0.01-0.05-0.02-0.1-0.02-0.15c0.01,0.06,0.02,0.11,0.03,0.17c0,0.01,0,0.02,0,0.04c0-0.01,0-0.02,0-0.04
	c0.02,0.12,0.04,0.25,0.07,0.37c0.15,0.51,0.3,1.01,0.39,1.53c0.11,0.65,0.14,1.32,0.14,1.98c0.01,0.7-0.03,1.39-0.12,2.08
	c-0.04,0.33-0.1,0.66-0.17,0.99c-0.06,0.3-0.16,0.58-0.25,0.87c0.02,0.08,0.04,0.16,0.06,0.24c0.01,0.04,0.02,0.07,0.04,0.11
	c0.27,0.77-0.11,1.64-0.88,1.93c-0.16,0.06-0.34,0.09-0.51,0.09C38.67,385.27,38.07,384.89,37.86,384.29z"/>
<path class="st1" d="M40.51,375.07c0-0.01,0-0.01,0-0.02C40.51,375.06,40.51,375.07,40.51,375.07
	C40.51,375.07,40.51,375.07,40.51,375.07z"/>
<path class="st1" d="M38.9,350.36c0-0.01,0-0.01,0-0.02C38.9,350.35,38.9,350.36,38.9,350.36C38.9,350.36,38.9,350.36,38.9,350.36z"
	/>
<path class="st1" d="M94.39,429.16c-1.14-1.14-1.24-2.84-1.71-4.31c-0.32-1.08-0.92-2.04-0.94-3.19c-0.75-2.35-0.95-4.79-1.08-7.24
	c-1.29-9.38-2.15-18.9-4.39-28.09c0.04-3.05,5.23-2.05,3.22,0.69c1.71,6.4,2.18,13.04,3.15,19.57c0.75,4.08,1,8.21,1.46,12.32
	c0.37,1.04,0.62,2.12,0.74,3.22c0.91,1.53,0.85,3.52,1.76,5C97.9,428.59,95.72,430.59,94.39,429.16z"/>
<path class="st1" d="M205.7,421.02c-1.47-1.49-1.2-3.85-1.55-5.77c-0.49-2.29-2.44-3.98-2.76-6.38c0.02,0.06,0.04,0.13,0.05,0.19
	c-0.25-0.79-0.54-1.55-0.87-2.3c0.02,0.06,0.05,0.12,0.08,0.18c-3.31-7.41-3.87-15.71-6.03-23.48c-0.32-1.72-2.55-4.64-0.05-5.59
	c0.41-0.1,0.81-0.09,1.22-0.09c1.29-0.01,1.92,1.79,0.95,2.59c2.44,7.18,3.17,14.83,5.34,22.1c0.41,1.37,1.05,2.63,1.62,3.93
	c0.62,1.36,0.75,2.91,1.54,4.19c1.99,2.31,1.91,5.31,2.46,8.12c1.01-0.14,2.09,0.47,2.03,1.59
	C209.54,422.25,206.84,421.95,205.7,421.02z"/>
<path class="st1" d="M328.73,412.79c-1.83-0.18-1.27-2.08-1.67-3.35c-1.25-4.3,0.03-8.7,0.64-13c0.39-5.57,0.06-11.17,0.21-16.76
	c0.04-1.19,0.03-3,1.45-3.37c1.04-0.26,1.86,0.68,2,1.64c0.13,1.08,0.65,2.63-0.48,3.33c-0.05,4.75,0.09,9.51-0.1,14.26
	c-0.41,4.72-2.11,9.45-0.62,14.14C330.6,410.85,330.33,412.85,328.73,412.79z"/>
<path class="st1" d="M446.23,398.67c-0.08-7.58,2.02-14.99,2.52-22.55c-1.12,0-1.82-1.38-1.2-2.31c0.49-0.75,0.94-1.55,1.56-2.2
	c2.58-1.73,3.11,1.58,2.75,3.48c-0.51,6.7-1.84,13.3-2.52,19.96c-0.45,1.58,0.74,4.62-1.48,4.97
	C447.05,400.11,446.31,399.49,446.23,398.67z"/>
<path class="st1" d="M420.3,454.66c-0.71-0.34-1.11-1.28-0.71-2c0.02-0.04,0.04-0.07,0.06-0.11c0.05-0.14,0.09-0.28,0.12-0.42
	c-0.02,0.06-0.03,0.13-0.05,0.19c0.02-0.12,0.04-0.25,0.07-0.37c0.13-1.44,0.04-2.89,0.15-4.34c0.13-1.65,0.49-3.27,0.7-4.91
	c0.22-2.02,0.09-4.07,0.15-6.1c0.02-0.79,0.05-1.59,0.17-2.38c0.06-0.39,0.1-0.79,0.18-1.18c0.11-0.48,0.21-0.95,0.31-1.43
	c0.32-1.49,0.71-2.97,1-4.47c0.3-1.59,0.62-3.18,0.86-4.79c0.13-0.9,0.29-1.8,0.39-2.7c0.12-1.03,0.24-2.06,0.36-3.09
	c-0.01,0.05-0.01,0.1-0.01,0.14c0.2-1.83,0.39-3.66,0.58-5.5c0.09-0.87,0.15-1.73,0.2-2.61c0.05-1,0.05-2,0.14-3
	c0.07-0.74,0.61-1.36,1.37-1.42c0.76-0.07,1.4,0.45,1.59,1.16c0.12,0.46,0.18,0.95,0.31,1.41c0-0.01-0.01-0.02-0.01-0.03
	c0.14,0.55,0.01,1.13-0.37,1.52c0,0.04,0,0.08-0.01,0.12c-0.04,0.78-0.08,1.56-0.16,2.34c-0.18,1.84-0.38,3.68-0.57,5.51
	c-0.34,3.14-0.72,6.29-1.32,9.4c-0.3,1.54-0.59,3.09-0.95,4.62c-0.18,0.78-0.37,1.55-0.54,2.33c-0.16,0.75-0.29,1.49-0.41,2.25
	c-0.07,0.83-0.12,1.66-0.13,2.5c-0.01,0.91-0.01,1.83-0.01,2.74c0,0.88-0.01,1.75-0.1,2.62c-0.07,0.71-0.18,1.41-0.3,2.12
	c-0.14,0.83-0.28,1.66-0.39,2.49c-0.07,1-0.1,1.99-0.11,2.99c0,0.51,0,1.02-0.05,1.53c-0.08,0.72-0.16,1.48-0.51,2.13
	c-0.28,0.52-0.81,0.86-1.37,0.86C420.72,454.8,420.51,454.75,420.3,454.66z"/>
<path class="st1" d="M424.05,416.52c0,0.02,0,0.04-0.01,0.05C424.05,416.56,424.05,416.54,424.05,416.52z"/>
<path class="st1" d="M304.25,456.1c-0.48-0.44-0.55-1.18-0.27-1.73c0.74-2.31,0.49-4.73,0.75-7.11c0.59-3.84,1.09-7.78,2.59-11.39
	c1.32-3.03,2.71-6.04,3.51-9.27c-0.01,0.05-0.02,0.09-0.03,0.14c1.01-4.01,1.33-8.14,1.74-12.23c0.28-1.71-0.02-4.41,2.07-4.98
	c2.06-0.43,3.31,2.1,1.2,2.96c-0.87,7.12-1.13,14.48-4.22,21.1c-2.2,4.28-3.19,8.95-3.84,13.68c0,0,0-0.01,0-0.01
	C307.37,449.2,308.13,458.8,304.25,456.1z"/>
<path class="st1" d="M173.41,461.18c-0.8-0.26-1.18-1.1-0.97-1.88c0.01-0.05,0.01-0.1,0.02-0.15c0,0.03-0.01,0.06-0.01,0.1
	c0.79-4.33,1.98-8.61,2.71-12.95c0.35-3.38,0.27-6.78,0.45-10.17c0.33-4.55,0.9-9.1,0.71-13.67c0,0.01,0,0.01,0,0.02
	c-0.32-1.65,1.13-3.5,2.68-2.08c1,0.99,2.02,2.5,0.34,3.42c0.11,4.25-0.5,8.46-0.74,12.7c-0.2,5.2-0.01,10.49-1.59,15.51
	c0.02-0.06,0.04-0.12,0.05-0.19c-0.51,2.42-0.87,4.88-1.57,7.26C175.51,460.29,174.77,461.59,173.41,461.18z"/>
<path class="st1" d="M74.89,456.51c-2.06-8.98-2.69-18.31-2.85-27.51c-1.76-1.34,0.89-4.18,2.36-2.55c0.88,0.93,0.55,2.34,0.65,3.51
	c-0.05,3.42,0.2,6.83,0.57,10.22c0.46,5.25,0.85,10.55,2.21,15.66C78.24,457.73,75.38,458.43,74.89,456.51z"/>
<path class="st1" d="M100.22,500c-0.26-0.25-0.44-0.58-0.48-0.96c-0.32-2.66-0.14-5.36-0.2-8.03c0,0.01,0,0.02,0,0.03
	c0.09-2.2-0.66-4.26-1.27-6.35c-1.15-5.74-2.9-11.34-3.72-17.14c-0.42-2.52-0.8-5.05-1.46-7.51c-0.24-0.7-0.17-1.56,0.43-2.06
	c1.53-1.41,4.89,1.39,2.86,2.89c1.22,7.06,2.61,14.06,4.35,21.01c0.4,2.46,1.46,4.78,1.73,7.26c0.17,2.4,0.06,4.81,0.09,7.21
	c-0.11,1.19,0.65,2.69-0.3,3.65C102.25,500,100.22,500,100.22,500z"/>
<path class="st1" d="M218.75,500c-0.11-0.18-0.17-0.39-0.19-0.61c-0.15-2.08-0.22-4.17-0.27-6.26c0,0.02,0,0.03,0,0.05
	c-0.05-4.22-1.13-8.43-2.62-12.35c0.03,0.06,0.05,0.12,0.08,0.18c-3.35-5.41-3.44-11.83-4.28-17.95c-0.19-1.95-1.55-4.08-0.24-5.88
	c0.51-1.79,3.23-1.19,2.93,0.67c0,0.54-0.63,0.94-0.46,1.48c-0.01-0.07-0.02-0.13-0.03-0.2c1.43,5.18,1.25,10.65,2.6,15.85
	c0.44,1.47,1.25,2.78,1.91,4.15c1.44,3.07,2.07,6.44,2.79,9.73c0.32,1.99,0.32,4,0.35,6c-0.08,1.68,0.51,3.52,0.03,5.13
	C221.35,500,218.75,500,218.75,500z"/>
<path class="st1" d="M337.05,500c-0.29-0.25-0.5-0.6-0.52-1c-0.08-1.88-0.19-3.76-0.3-5.64c-0.27-3.99-0.68-7.97-1.33-11.91
	c-2.01-8.68-3.97-17.39-4.25-26.33c-2.67-1.82-0.03-4.81,1.99-2.25c0,0,0,0-0.01-0.01c1.42,0.91,0.97,2.97,1.18,4.42
	c0.13,3.23,0.53,6.43,1.04,9.62c1.08,6.52,3.16,12.84,3.74,19.44c0.46,4.12,0.74,8.25,0.92,12.39c0.02,0.49-0.17,0.96-0.52,1.26
	H337.05z"/>
<path class="st1" d="M434.02,500c-1.18-0.94-0.18-2.54-0.14-3.77c0.23-1.6,0.45-3.2,0.67-4.81c0.59-6.36,0.9-12.72,0.87-19.1
	c-0.05-4.9,0.02-9.81-0.34-14.7c-0.13-1.3-0.23-2.61-0.41-3.9c-0.1-1.03-0.37-2.26,0.38-3.11c1.21-1.47,3.69,0.39,2.52,1.95
	c1.1,8.74,0.86,17.58,0.76,26.37c-0.04,4.68-0.48,9.36-0.96,14.01c-0.29,2.05-0.55,4.11-0.96,6.14c-0.07,0.38-0.28,0.7-0.57,0.92
	C435.84,500,434.02,500,434.02,500z"/>
<path class="st1" d="M0,42.27c3.15-0.03,6.31-0.05,9.46-0.08c0.04,0,0.07,0,0.11,0c14.5-0.12,29-0.24,43.49-0.36
	c21.79-0.18,43.59-0.36,65.38-0.54c21.88-0.18,43.76-0.36,65.64-0.54c21.86-0.18,43.73-0.36,65.59-0.54
	c21.91-0.18,43.82-0.36,65.74-0.54c21.81-0.18,43.61-0.36,65.42-0.54c21.66-0.18,43.33-0.36,64.99-0.54
	c18.06-0.15,36.12-0.3,54.18-0.44v3c-0.63,0.01-1.26,0.01-1.89,0.02c-7.89,0.07-15.77,0.13-23.66,0.2
	c-21.35,0.18-42.7,0.35-64.06,0.53c-21.93,0.18-43.85,0.36-65.78,0.54c-21.8,0.18-43.6,0.36-65.4,0.54
	c-21.92,0.18-43.83,0.36-65.75,0.54c-21.84,0.18-43.68,0.36-65.52,0.54c-22.05,0.18-44.09,0.36-66.14,0.54
	c-21.65,0.18-43.29,0.36-64.94,0.54c-2.44,0.02-4.88,0.04-7.32,0.06c-0.02,0-0.04,0-0.06,0C6.32,45.22,3.16,45.24,0,45.27V42.27z"/>
<path class="st1" d="M64.3,43.23C63.96,28.75,66,14.36,67.5,0c0,0,2.99,0,2.99,0c-1,10.17-2.41,20.3-2.92,30.5
	c-0.24,4.26-0.44,8.53-0.28,12.79C67.16,45.11,64.37,45.06,64.3,43.23z"/>
<path class="st1" d="M172.43,43.91c-0.63-0.4-0.71-1.13-0.7-1.81c0,0.07,0,0.14,0,0.2c-1.04-14.11-1.48-28.31,1.05-42.3
	c0,0,3.03,0,3.03,0c-1.66,10.2-2.39,20.56-1.76,30.89c0.16,3.7,0.58,7.38,0.67,11.08C175.24,43.36,173.75,44.8,172.43,43.91z"/>
<path class="st1" d="M288.28,41.71c-1.46-0.3-3.48-0.32-4.53-1.47c-1.8-2.85-0.97-6.57-1.09-9.78c0.36-10.16,0.75-20.31,1.21-30.47
	c0,0,3.01,0,3.01,0c-0.36,7.26-0.63,14.53-0.89,21.8c-0.01,5.43-0.96,11.04,0.02,16.41c1.36,0.49,3.98,0.12,3.91,2.15
	C289.83,41.16,289.08,41.8,288.28,41.71z"/>
<path class="st1" d="M362.16,40.18c0.02-0.11,0.03-0.21,0.04-0.31c0.05-0.45,0.3-0.85,0.65-1.09c0.04-0.07,0.07-0.15,0.11-0.23
	c0.4-0.94,0.7-1.92,1-2.91c-0.02,0.06-0.04,0.12-0.06,0.19c0.81-2.73,1.39-5.52,1.84-8.33c0,0.01,0,0.01,0,0.02
	c0-0.01,0-0.03,0.01-0.04c0.01-0.05,0.02-0.1,0.02-0.15c0,0.02-0.01,0.04-0.01,0.06c0.29-1.92,0.44-3.85,0.65-5.78
	c0.13-1.21,0.27-2.41,0.34-3.62c0.2-3.23,0.43-6.47,0.6-9.71c0.14-2.76,0.28-5.51,0.42-8.27h3c-0.08,1.62-0.17,3.24-0.25,4.85
	c-0.16,3.2-0.34,6.39-0.55,9.59c-0.1,1.61-0.2,3.21-0.3,4.82c-0.03,0.4-0.09,0.81-0.13,1.21c-0.11,1.05-0.23,2.11-0.34,3.17
	c-0.1,0.93-0.2,1.86-0.3,2.8c-0.12,1.19-0.34,2.37-0.55,3.54c-0.39,2.2-0.89,4.38-1.53,6.52c-0.3,1-0.6,1.98-0.99,2.95
	c-0.31,0.77-0.68,1.64-1.36,2.13c-0.24,0.17-0.51,0.25-0.78,0.25C362.87,41.82,362.04,41.08,362.16,40.18z"/>
<path class="st1" d="M365.75,27.38c0,0.03-0.01,0.06-0.01,0.09c0,0.01,0,0.02,0,0.03C365.74,27.46,365.75,27.42,365.75,27.38z"/>
<path class="st1" d="M459.54,38.34c0.03-0.7,0.63-1.24,1.28-1.35c0.04-0.22,0.08-0.45,0.11-0.67c0,0.01,0,0.03-0.01,0.04
	c0-0.02,0.01-0.04,0.01-0.06c0.01-0.05,0.02-0.1,0.02-0.14c-0.01,0.04-0.01,0.08-0.02,0.11c0.2-1.43,0.31-2.88,0.43-4.32
	c0.08-1.03,0.16-2.07,0.24-3.1c0.11-1.37,0.2-2.75,0.32-4.12c0.2-2.11,0.39-4.21,0.58-6.31c0.12-1.3,0.2-2.61,0.37-3.91
	c0.5-3.9,0.99-7.8,1.49-11.7c0.11-0.86,0.25-1.7,0.39-2.55c0.02-0.09,0.03-0.18,0.05-0.27h3.04c-0.1,0.57-0.2,1.14-0.3,1.7
	c-0.02,0.13-0.04,0.26-0.07,0.4c-0.45,3.69-0.94,7.37-1.41,11.05c-0.4,3.15-0.64,6.31-0.93,9.46c-0.24,2.6-0.45,5.21-0.65,7.81
	c-0.16,2.07-0.28,4.14-0.58,6.2c-0.2,1.34-0.42,3.45-2.08,3.76c-0.1,0.02-0.21,0.03-0.31,0.03
	C460.45,40.41,459.49,39.42,459.54,38.34z"/>
<path class="st1" d="M460.94,36.27c0,0.01,0,0.02,0,0.03c0,0.01,0,0.01,0,0.02C460.93,36.3,460.94,36.29,460.94,36.27z"/>
</svg>
